<svg width="16" height="16" viewBox="0 0 16 16" fill="none" xmlns="http://www.w3.org/2000/svg">
<g clip-path="url(#clip0_73_466)">
<path d="M5.99881 9.03129C5.93885 9.03129 4.61955 9.03129 4.01987 9.03129C3.70004 9.03129 3.6001 8.91114 3.6001 8.61076C3.6001 7.80976 3.6001 6.98874 3.6001 6.18773C3.6001 5.86733 3.72003 5.76721 4.01987 5.76721H5.99881C5.99881 5.70713 5.99881 4.54568 5.99881 4.00501C5.99881 3.20401 6.13874 2.44305 6.53852 1.74218C6.9583 1.02128 7.55798 0.540676 8.31757 0.260325C8.8173 0.0801 9.31704 0 9.85675 0H11.8157C12.0955 0 12.2155 0.12015 12.2155 0.400501V2.68335C12.2155 2.9637 12.0955 3.08385 11.8157 3.08385C11.276 3.08385 10.7363 3.08385 10.1966 3.10388C9.65685 3.10388 9.377 3.36421 9.377 3.92491C9.35701 4.52566 9.377 5.10638 9.377 5.72716H11.6958C12.0156 5.72716 12.1355 5.84731 12.1355 6.16771V8.59074C12.1355 8.91114 12.0356 9.01126 11.6958 9.01126C10.9761 9.01126 9.43697 9.01126 9.377 9.01126V15.5394C9.377 15.8798 9.27706 16 8.91725 16C8.0777 16 7.25814 16 6.41859 16C6.11875 16 5.99881 15.8799 5.99881 15.5795C5.99881 13.4768 5.99881 9.09136 5.99881 9.03129Z" fill="#0B262E"/>
</g>
<defs>
<clipPath id="clip0_73_466">
<rect width="16" height="16" fill="white"/>
</clipPath>
</defs>
</svg>
