<svg width="32" height="32" viewBox="0 0 32 32" fill="none" xmlns="http://www.w3.org/2000/svg">
<path d="M11.0181 24.6291C11.7984 28.2433 16.0001 31.0625 16.0001 31.0625C16.0001 31.0625 21.1061 27.6366 21.1061 23.4965C21.1061 19.3563 16.0001 16 16.0001 16" stroke="#FF5303" stroke-width="1.7" stroke-miterlimit="10" stroke-linecap="round" stroke-linejoin="round"/>
<path d="M20.982 24.6291C24.5021 25.7604 29.0445 23.5312 29.0445 23.5312C29.0445 23.5312 28.6306 17.3964 25.0451 15.3262C21.4596 13.2562 16 16 16 16" stroke="#FF5303" stroke-width="1.7" stroke-miterlimit="10" stroke-linecap="round" stroke-linejoin="round"/>
<path d="M25.964 16C28.7038 13.5171 29.0446 8.46875 29.0446 8.46875C29.0446 8.46875 23.5246 5.75969 19.9391 7.82981C16.3536 9.89988 16 16 16 16" stroke="#FF5303" stroke-width="1.7" stroke-miterlimit="10" stroke-linecap="round" stroke-linejoin="round"/>
<path d="M20.9821 7.37094C20.2018 3.75675 16.0001 0.937501 16.0001 0.937501C16.0001 0.937501 10.894 4.36338 10.894 8.50356C10.894 12.6437 16.0001 16 16.0001 16" stroke="#FF5303" stroke-width="1.7" stroke-miterlimit="10" stroke-linecap="round" stroke-linejoin="round"/>
<path d="M11.0181 7.37094C7.49794 6.23963 2.95557 8.46876 2.95557 8.46876C2.95557 8.46876 3.36944 14.6036 6.95494 16.6738C10.5404 18.7438 16.0001 16 16.0001 16" stroke="#FF5303" stroke-width="1.7" stroke-miterlimit="10" stroke-linecap="round" stroke-linejoin="round"/>
<path d="M6.03607 16C3.29625 18.4829 2.95557 23.5313 2.95557 23.5313C2.95557 23.5313 8.47544 26.2403 12.0609 24.1702C15.6464 22.1001 16.0001 16 16.0001 16" stroke="#FF5303" stroke-width="1.7" stroke-miterlimit="10" stroke-linecap="round" stroke-linejoin="round"/>
</svg>
