<svg width="32" height="32" viewBox="0 0 32 32" fill="none" xmlns="http://www.w3.org/2000/svg">
<g clip-path="url(#clip0_156_17744)">
<path d="M29.125 15.0625C29.125 22.829 22.829 29.1875 15.0625 29.1875C7.296 29.1875 0.9375 22.829 0.9375 15.0625C0.9375 7.296 7.296 0.937502 15.0625 0.937502C22.829 0.937502 29.125 7.296 29.125 15.0625Z" stroke="#FF5303" stroke-width="1.7" stroke-miterlimit="10" stroke-linecap="round" stroke-linejoin="round"/>
<path d="M8.79856 10.0701C10.2759 10.5501 11.0843 12.1368 10.6043 13.614C10.1243 15.0913 8.53763 15.8998 7.06031 15.4198C5.58307 14.9398 4.77463 13.3531 5.25463 11.8758C5.73463 10.3985 7.32132 9.59007 8.79856 10.0701Z" stroke="#FF5303" stroke-width="1.7" stroke-miterlimit="10" stroke-linecap="round" stroke-linejoin="round"/>
<path d="M8.37864 19.477C9.29164 18.2204 11.0505 17.9418 12.3071 18.8547C13.5638 19.7677 13.8423 21.5266 12.9294 22.7832C12.0163 24.0399 10.2575 24.3185 9.00089 23.4055C7.74421 22.4925 7.46564 20.7336 8.37864 19.477Z" stroke="#FF5303" stroke-width="1.7" stroke-miterlimit="10" stroke-linecap="round" stroke-linejoin="round"/>
<path d="M17.1955 22.7833C16.2825 21.5266 16.5611 19.7678 17.8178 18.8548C19.0744 17.9418 20.8333 18.2203 21.7463 19.477C22.6593 20.7336 22.3807 22.4925 21.124 23.4055C19.8674 24.3185 18.1085 24.0399 17.1955 22.7833Z" stroke="#FF5303" stroke-width="1.7" stroke-miterlimit="10" stroke-linecap="round" stroke-linejoin="round"/>
<path d="M23.0647 15.4197C21.5874 15.8997 20.0008 15.0913 19.5207 13.6139C19.0408 12.1367 19.8492 10.55 21.3265 10.07C22.8038 9.59 24.3904 10.3985 24.8705 11.8758C25.3505 13.353 24.542 14.9397 23.0647 15.4197Z" stroke="#FF5303" stroke-width="1.7" stroke-miterlimit="10" stroke-linecap="round" stroke-linejoin="round"/>
<path d="M17.875 7.5625C17.875 9.11581 16.6158 10.375 15.0625 10.375C13.5092 10.375 12.25 9.11581 12.25 7.5625C12.25 6.00919 13.5092 4.75 15.0625 4.75C16.6158 4.75 17.875 6.00919 17.875 7.5625Z" stroke="#FF5303" stroke-width="1.7" stroke-miterlimit="10" stroke-linecap="round" stroke-linejoin="round"/>
<path d="M16 15.0625C16 15.5803 15.5803 16 15.0625 16C14.5447 16 14.125 15.5803 14.125 15.0625C14.125 14.5447 14.5447 14.125 15.0625 14.125C15.5803 14.125 16 14.5447 16 15.0625Z" stroke="#FF5303" stroke-width="1.7" stroke-miterlimit="10" stroke-linecap="round" stroke-linejoin="round"/>
<path d="M15.0625 29.1875H23.0574C25.8146 29.1875 28.5964 29.8294 31.0625 31.0625" stroke="#FF5303" stroke-width="1.7" stroke-miterlimit="10" stroke-linecap="round" stroke-linejoin="round"/>
</g>
<defs>
<clipPath id="clip0_156_17744">
<rect width="32" height="32" fill="white"/>
</clipPath>
</defs>
</svg>
