<svg width="20" height="20" viewBox="0 0 20 20" fill="none" xmlns="http://www.w3.org/2000/svg">
<path fill-rule="evenodd" clip-rule="evenodd" d="M3.09003 6.19998C3.09003 5.6974 3.49745 5.28998 4.00003 5.28998H10.5C11.0026 5.28998 11.41 5.6974 11.41 6.19998C11.41 6.70256 11.0026 7.10998 10.5 7.10998H4.00003C3.49745 7.10998 3.09003 6.70256 3.09003 6.19998ZM3.09003 9.99998C3.09003 9.4974 3.49745 9.08998 4.00003 9.08998H13.2C13.7026 9.08998 14.11 9.4974 14.11 9.99998C14.11 10.5026 13.7026 10.91 13.2 10.91H4.00003C3.49745 10.91 3.09003 10.5026 3.09003 9.99998ZM3.09003 13.8C3.09003 13.2974 3.49745 12.89 4.00003 12.89H16C16.5026 12.89 16.91 13.2974 16.91 13.8C16.91 14.3026 16.5026 14.71 16 14.71H4.00003C3.49745 14.71 3.09003 14.3026 3.09003 13.8Z" fill="#0B262E"/>
</svg>
