<svg width="21" height="20" viewBox="0 0 21 20" fill="none" xmlns="http://www.w3.org/2000/svg">
<path d="M13.2778 14.6528C14.1982 14.6528 14.9444 13.9066 14.9444 12.9861C14.9444 12.0657 14.1982 11.3195 13.2778 11.3195C12.3573 11.3195 11.6111 12.0657 11.6111 12.9861C11.6111 13.9066 12.3573 14.6528 13.2778 14.6528Z" stroke="#0B262E" stroke-width="1.4" stroke-miterlimit="10" stroke-linecap="round" stroke-linejoin="round"/>
<path d="M6.12499 8.33333C7.04547 8.33333 7.79166 7.58714 7.79166 6.66667C7.79166 5.74619 7.04547 5 6.12499 5C5.20452 5 4.45833 5.74619 4.45833 6.66667C4.45833 7.58714 5.20452 8.33333 6.12499 8.33333Z" stroke="#0B262E" stroke-width="1.4" stroke-miterlimit="10" stroke-linecap="round" stroke-linejoin="round"/>
<path d="M17.5833 13.1597H15.2917" stroke="#0B262E" stroke-width="1.4" stroke-miterlimit="10" stroke-linecap="round" stroke-linejoin="round"/>
<path d="M3 6.84033H4.45833" stroke="#0B262E" stroke-width="1.4" stroke-miterlimit="10" stroke-linecap="round" stroke-linejoin="round"/>
<path d="M11.6111 13.1597H3" stroke="#0B262E" stroke-width="1.4" stroke-miterlimit="10" stroke-linecap="round" stroke-linejoin="round"/>
<path d="M8.13888 6.84033H17.5833" stroke="#0B262E" stroke-width="1.4" stroke-miterlimit="10" stroke-linecap="round" stroke-linejoin="round"/>
</svg>
