<svg width="20" height="20" viewBox="0 0 20 20" fill="none" xmlns="http://www.w3.org/2000/svg">
<g clip-path="url(#clip0_110_3486)">
<path d="M10.0002 1.1998C14.8569 1.1998 18.8002 5.14308 18.8002 9.9998C18.8002 14.8565 14.8569 18.7998 10.0002 18.7998C5.14347 18.7998 1.2002 14.8565 1.2002 9.9998C1.2002 5.14308 5.14347 1.1998 10.0002 1.1998Z" stroke="#0B262E" stroke-width="1.4" stroke-miterlimit="10" stroke-linecap="round" stroke-linejoin="round"/>
<path d="M12.9336 7.06666C12.9336 6.28872 12.6244 5.54251 12.0744 4.99249C11.5244 4.44251 10.7782 4.1333 10.0003 4.1333C9.22235 4.1333 8.4761 4.44251 7.92608 4.99249C7.3761 5.54251 7.06689 6.28872 7.06689 7.06666V8.23998C7.06689 9.01792 7.3761 9.76413 7.92608 10.3142C8.4761 10.8641 9.22235 11.1733 10.0003 11.1733C10.7782 11.1733 11.5244 10.8641 12.0744 10.3142C12.6244 9.76413 12.9336 9.01792 12.9336 8.23998V7.06666Z" stroke="#0B262E" stroke-width="1.4" stroke-miterlimit="10" stroke-linecap="round" stroke-linejoin="round"/>
<path d="M3.71826 16.16C5.31577 14.5312 7.541 13.52 10.0003 13.52C12.4596 13.52 14.6848 14.5312 16.2823 16.16C14.6848 17.7889 12.4596 18.8 10.0003 18.8C7.541 18.8 5.31577 17.7889 3.71826 16.16Z" stroke="#0B262E" stroke-width="1.4" stroke-miterlimit="10" stroke-linecap="round" stroke-linejoin="round"/>
</g>
<defs>
<clipPath id="clip0_110_3486">
<rect width="20" height="20" fill="white"/>
</clipPath>
</defs>
</svg>
