<svg width="32" height="32" viewBox="0 0 32 32" fill="none" xmlns="http://www.w3.org/2000/svg">
<path d="M28.577 3.15086C28.4473 3.06646 28.2986 3.0158 28.1444 3.00348C27.9902 2.99115 27.8353 3.01755 27.6939 3.08029L20.2924 6.37015L12.0339 3.06636C11.9186 3.02029 11.7953 2.99778 11.6713 3.00017C11.5472 3.00256 11.4248 3.02981 11.3115 3.08029L3.55156 6.52893C3.38737 6.60187 3.24788 6.72087 3.14997 6.87152C3.05207 7.02216 2.99998 7.19797 3 7.37762V28.0713C2.99998 28.226 3.03861 28.3783 3.11239 28.5143C3.18617 28.6502 3.29276 28.7656 3.42246 28.85C3.55217 28.9343 3.70089 28.9849 3.85511 28.9971C4.00933 29.0093 4.16416 28.9828 4.30554 28.92L11.707 25.6302L19.9656 28.934C20.0809 28.9796 20.2042 29.0018 20.3282 28.9994C20.4522 28.997 20.5745 28.97 20.688 28.92L28.4479 25.4714C28.6121 25.3984 28.7516 25.2794 28.8495 25.1288C28.9474 24.9782 28.9995 24.8023 28.9995 24.6227V3.92898C28.9994 3.77436 28.9607 3.6222 28.8869 3.48632C28.8131 3.35043 28.7066 3.23513 28.577 3.15086ZM12.617 5.30045L19.3824 8.00718V26.6999L12.617 23.9931V5.30045ZM4.8571 7.98118L10.7599 5.35802V24.0219L4.8571 26.6423V7.98118ZM27.1423 24.0191L21.2395 26.6423V7.98118L27.1423 5.35802V24.0191Z" fill="#FF5303"/>
</svg>
