<svg width="20" height="20" viewBox="0 0 20 20" fill="none" xmlns="http://www.w3.org/2000/svg">
<path d="M17.2997 13.6521V15.8544C17.3006 16.0588 17.2587 16.2612 17.1768 16.4485C17.0949 16.6358 16.9748 16.804 16.8241 16.9422C16.6735 17.0804 16.4956 17.1856 16.3019 17.2511C16.1083 17.3166 15.9031 17.3409 15.6994 17.3225C13.4405 17.0771 11.2707 16.3052 9.3643 15.0689C7.59062 13.9418 6.08686 12.438 4.95979 10.6644C3.71917 8.74929 2.94711 6.5689 2.70615 4.29984C2.68781 4.09684 2.71193 3.89225 2.77699 3.69908C2.84205 3.50592 2.94662 3.32842 3.08404 3.17788C3.22145 3.02734 3.38871 2.90707 3.57516 2.82471C3.7616 2.74236 3.96316 2.69973 4.16698 2.69953H6.36923C6.72549 2.69603 7.07086 2.82218 7.34099 3.05449C7.61111 3.28679 7.78754 3.60939 7.8374 3.96216C7.93035 4.66693 8.10274 5.35893 8.35126 6.02494C8.45003 6.28769 8.4714 6.57324 8.41285 6.84777C8.35431 7.12229 8.21829 7.37428 8.02092 7.57387L7.08864 8.50615C8.13364 10.344 9.65533 11.8657 11.4931 12.9107L12.4254 11.9784C12.625 11.781 12.877 11.645 13.1515 11.5864C13.426 11.5279 13.7116 11.5493 13.9743 11.648C14.6404 11.8966 15.3324 12.069 16.0371 12.1619C16.3937 12.2122 16.7194 12.3918 16.9522 12.6666C17.185 12.9413 17.3087 13.2921 17.2997 13.6521Z" stroke="#0B262E" stroke-width="1.4" stroke-miterlimit="10" stroke-linecap="round" stroke-linejoin="round"/>
</svg>
