<svg width="76" height="76" viewBox="0 0 76 76" fill="none" xmlns="http://www.w3.org/2000/svg">
<path d="M38.0002 57.4526C48.7435 57.4526 57.4526 48.7435 57.4526 38.0002C57.4526 27.257 48.7435 18.5479 38.0002 18.5479C27.257 18.5479 18.5479 27.257 18.5479 38.0002C18.5479 48.7435 27.257 57.4526 38.0002 57.4526Z" stroke="#CFD4D5" stroke-width="0.904762"/>
<path d="M38.8329 19H38V21.8436H38.8329V19Z" fill="#CFD4D5"/>
<path d="M57.7283 38H54.8848V38.8329H57.7283V38Z" fill="#CFD4D5"/>
<path d="M38.8329 54.2861H38V57.1297H38.8329V54.2861Z" fill="#CFD4D5"/>
<path d="M21.8436 38H19V38.8329H21.8436V38Z" fill="#CFD4D5"/>
<path d="M38.0001 31.667L35.2913 37.6208L35.2432 37.699C36.1572 39.7145 37.0863 41.7151 38.0001 43.7311L40.757 37.6991L38.0001 31.667Z" fill="#FF5303"/>
<path d="M37.5723 10.132C36.8603 10.132 36.3043 9.936 35.9043 9.544C35.5043 9.152 35.3043 8.608 35.3043 7.912V4.228C35.3043 3.532 35.5043 2.988 35.9043 2.596C36.3123 2.196 36.8683 1.996 37.5723 1.996C38.3163 1.996 38.8803 2.2 39.2643 2.608C39.6563 3.016 39.8523 3.612 39.8523 4.396V5.116H38.9883V4.396C38.9883 3.86 38.8683 3.456 38.6283 3.184C38.3883 2.912 38.0363 2.776 37.5723 2.776C37.1163 2.776 36.7643 2.908 36.5163 3.172C36.2763 3.436 36.1563 3.808 36.1563 4.288V7.852C36.1563 8.332 36.2763 8.704 36.5163 8.968C36.7643 9.224 37.1163 9.352 37.5723 9.352C38.0363 9.352 38.3883 9.22 38.6283 8.956C38.8683 8.684 38.9883 8.292 38.9883 7.78V7.024H39.8523V7.78C39.8523 8.548 39.6563 9.132 39.2643 9.532C38.8723 9.932 38.3083 10.132 37.5723 10.132Z" fill="#FF5303"/>
<path d="M38.7438 63.996C39.4398 63.988 39.9918 64.184 40.3998 64.584C40.8078 64.984 41.0118 65.524 41.0118 66.204V69.948C41.0118 70.628 40.8078 71.164 40.3998 71.556C39.9998 71.94 39.4478 72.132 38.7438 72.132C38.0558 72.132 37.5158 71.94 37.1238 71.556C36.7318 71.164 36.5358 70.628 36.5358 69.948V68.46H34.8558V72H34.0038V64.128H34.8558V67.668H36.5358V66.204C36.5358 65.516 36.7318 64.976 37.1238 64.584C37.5158 64.192 38.0558 63.996 38.7438 63.996ZM40.1598 66.252C40.1598 65.788 40.0358 65.428 39.7878 65.172C39.5478 64.908 39.2078 64.776 38.7678 64.776C38.3358 64.776 37.9958 64.908 37.7478 65.172C37.5078 65.428 37.3878 65.788 37.3878 66.252V69.9C37.3878 70.356 37.5078 70.712 37.7478 70.968C37.9878 71.224 38.3278 71.352 38.7678 71.352C39.2078 71.352 39.5478 71.224 39.7878 70.968C40.0358 70.712 40.1598 70.356 40.1598 69.9V66.252Z" fill="#0B262E"/>
<path d="M10.188 38.04C10.516 38.176 10.768 38.384 10.944 38.664C11.12 38.936 11.208 39.264 11.208 39.648V40.116C11.208 40.724 11 41.212 10.584 41.58C10.176 41.948 9.632 42.132 8.952 42.132C8.216 42.132 7.652 41.932 7.26 41.532C6.868 41.132 6.672 40.56 6.672 39.816V39.372H7.524V39.816C7.524 40.84 8.004 41.352 8.964 41.352C9.388 41.352 9.724 41.232 9.972 40.992C10.228 40.752 10.356 40.432 10.356 40.032V39.66C10.356 39.268 10.244 38.968 10.02 38.76C9.796 38.552 9.472 38.448 9.048 38.448H8.364V37.668H9.072C9.44 37.668 9.728 37.564 9.936 37.356C10.144 37.14 10.248 36.848 10.248 36.48V36.108C10.248 35.7 10.128 35.376 9.888 35.136C9.656 34.896 9.336 34.776 8.928 34.776C8.48 34.776 8.136 34.908 7.896 35.172C7.664 35.436 7.548 35.812 7.548 36.3V36.744H6.696V36.3C6.696 35.564 6.888 34.996 7.272 34.596C7.664 34.196 8.216 33.996 8.928 33.996C9.584 33.996 10.108 34.184 10.5 34.56C10.9 34.928 11.1 35.416 11.1 36.024V36.492C11.1 36.844 11.02 37.156 10.86 37.428C10.7 37.692 10.476 37.896 10.188 38.04Z" fill="#0B262E"/>
<path d="M68.092 37.98C68.46 38.116 68.744 38.344 68.944 38.664C69.144 38.976 69.244 39.352 69.244 39.792V40.032C69.244 40.64 69.056 41.12 68.68 41.472C68.304 41.824 67.784 42 67.12 42H64.828V34.128H66.988C67.66 34.128 68.18 34.296 68.548 34.632C68.924 34.96 69.112 35.428 69.112 36.036V36.276C69.112 36.692 69.024 37.044 68.848 37.332C68.672 37.62 68.42 37.836 68.092 37.98ZM65.68 34.908V37.62H66.916C67.348 37.62 67.68 37.512 67.912 37.296C68.144 37.072 68.26 36.756 68.26 36.348V36.132C68.26 35.316 67.804 34.908 66.892 34.908H65.68ZM68.38 39.708C68.38 39.292 68.26 38.968 68.02 38.736C67.788 38.504 67.46 38.388 67.036 38.388H65.68V41.22H67.024C67.464 41.22 67.8 41.112 68.032 40.896C68.264 40.672 68.38 40.352 68.38 39.936V39.708Z" fill="#0B262E"/>
</svg>
