<svg width="30" height="30" viewBox="0 0 30 30" fill="none" xmlns="http://www.w3.org/2000/svg">
<path d="M1 2.4182C5.70782 0.527268 10.9663 0.527268 15.6742 2.4182V29H1V2.4182Z" stroke="#FF5303" stroke-width="1.7" stroke-miterlimit="10" stroke-linecap="round" stroke-linejoin="round"/>
<path d="M11.9946 5.69586H4.68018V10.3742H11.9946V5.69586Z" stroke="#FF5303" stroke-width="1.7" stroke-miterlimit="10" stroke-linecap="round" stroke-linejoin="round"/>
<path d="M7.95866 23.2069L10.0832 19.5342H6.59131L8.52708 16.0499" stroke="#FF5303" stroke-width="1.7" stroke-miterlimit="10" stroke-linecap="round" stroke-linejoin="round"/>
<path d="M15.6875 13.5556H17.0586C18.7486 13.5556 20.1186 14.9226 20.1186 16.609V21.61C20.1186 23.2963 21.4886 24.6633 23.1786 24.6633C24.8686 24.6633 26.2386 23.2963 26.2386 21.61V10.4502" stroke="#FF5303" stroke-width="1.7" stroke-miterlimit="10" stroke-linecap="round" stroke-linejoin="round"/>
<path d="M24.5942 5.32525V3.16077" stroke="#FF5303" stroke-width="1.7" stroke-miterlimit="10" stroke-linecap="round" stroke-linejoin="round"/>
<path d="M29.0003 5.36121V7.69438C29.0003 9.21637 27.7665 10.4502 26.2445 10.4502H26.2343C24.7123 10.4502 23.4785 9.21637 23.4785 7.69438V5.36121H29.0003Z" stroke="#FF5303" stroke-width="1.7" stroke-miterlimit="10" stroke-linecap="round" stroke-linejoin="round"/>
<path d="M27.9136 5.36115V3.16077" stroke="#FF5303" stroke-width="1.7" stroke-miterlimit="10" stroke-linecap="round" stroke-linejoin="round"/>
</svg>
