<svg width="32" height="32" viewBox="0 0 32 32" fill="none" xmlns="http://www.w3.org/2000/svg">
<path fill-rule="evenodd" clip-rule="evenodd" d="M1.30704 16C1.30704 24.113 7.88731 30.6936 16 30.6936C24.1127 30.6936 30.693 24.113 30.693 16C30.693 7.88692 24.1127 1.30636 16 1.30636C7.88731 1.30636 1.30704 7.88692 1.30704 16ZM0 16C0 7.16575 7.14368 0.0218037 15.9775 -0.000732422H16.0225C24.8563 -0.000732422 32 7.16575 32 16C32 24.8342 24.8563 31.9781 16.0225 32.0006H15.9775C7.14368 32.0006 0 24.8342 0 16ZM21.4313 3.44736C19.7636 2.72621 17.9383 2.32056 16.0003 2.32056C14.0848 2.32056 12.2594 2.72621 10.5918 3.42483C10.3439 3.56005 9.9834 3.80795 9.9834 4.2136C9.9834 4.60992 10.2897 4.74079 10.7713 4.94661C11.1661 5.1153 11.6786 5.33433 12.2369 5.79112C13.4087 6.7151 14.0172 8.02219 14.0172 9.48705V29.5443C14.6707 29.6344 15.3242 29.6795 16.0003 29.6795C16.6763 29.6795 17.3298 29.6344 17.9834 29.5443V9.48705C17.9834 8.02219 18.5918 6.7151 19.7636 5.79112C20.3281 5.33755 20.8384 5.11839 21.2301 4.95018C21.7142 4.7423 22.0172 4.61221 22.0172 4.2136C22.0172 3.83048 21.6792 3.58258 21.4313 3.44736ZM10.0283 6.10669C10.3213 6.2419 10.8847 6.51236 11.3354 6.87295C12.2593 7.61664 12.7326 8.56314 12.7551 9.89279V29.3189C11.8086 29.071 10.8847 28.7555 10.0283 28.3274V6.10669ZM19.29 29.2964V9.89279C19.29 8.56314 19.7633 7.61664 20.7098 6.87295C21.1605 6.51236 21.7238 6.2419 22.0168 6.10669V28.3048C21.1605 28.733 20.2365 29.071 19.29 29.2964ZM2.32129 16C2.32129 20.8678 4.86777 25.1272 8.6762 27.5611V17.0818C7.12127 17.1268 6.53536 18.0734 6.37764 18.434C6.36341 18.4648 6.34943 18.4959 6.33552 18.5268L6.33543 18.527C6.21716 18.7899 6.1036 19.0424 5.88185 19.0424C5.43115 19.0424 5.07058 17.7353 5.07058 16.1127C5.07058 14.4901 5.43115 13.183 5.88185 13.183C6.11242 13.183 6.21195 13.4124 6.32009 13.6616C6.33878 13.7046 6.35772 13.7483 6.37764 13.7915C6.55793 14.1521 7.12127 15.0986 8.6762 15.1436V4.43896C4.86777 6.87289 2.32129 11.1547 2.32129 16ZM27.413 18.5639C27.4317 18.5208 27.4507 18.477 27.4706 18.4338C27.6283 18.0732 28.1692 17.1717 29.6565 17.059C29.3185 21.4761 26.8847 25.2848 23.3467 27.5384V4.41626C26.9523 6.69243 29.4087 10.6363 29.6791 15.1435C28.1917 15.0534 27.6509 14.1519 27.4706 13.7913C27.4507 13.7481 27.4317 13.7043 27.413 13.6612C27.3048 13.4121 27.2053 13.1828 26.9748 13.1828C26.5241 13.1828 26.1635 14.4899 26.1635 16.1125C26.1635 17.7351 26.5241 19.0422 26.9748 19.0422C27.2053 19.0422 27.3048 18.813 27.413 18.5639Z" fill="#E63F1E"/>
</svg>
