<svg width="32" height="30" viewBox="0 0 32 30" fill="none" xmlns="http://www.w3.org/2000/svg">
<path fill-rule="evenodd" clip-rule="evenodd" d="M0.903861 19.8481L10.6192 3.68449C13.048 -0.384414 18.9146 -0.384414 21.3808 3.68449L31.0961 19.8481C33.5997 24.029 30.6104 29.3671 25.7153 29.3671H6.28466C1.38963 29.3671 -1.5997 24.029 0.903861 19.8481ZM29.9377 20.6694L20.185 4.43108C18.8398 2.19132 15.6263 2.19132 14.2811 4.43108L4.52843 20.6694C3.14586 22.9838 4.78999 25.8955 7.48039 25.8955H26.9858C29.6762 25.8955 31.3203 22.9838 29.9377 20.6694ZM9.83387 18.579L16.3357 7.79079C17.3072 6.18562 19.6239 6.18562 20.5955 7.79079L27.0598 18.579C28.0688 20.2215 26.8731 22.3493 24.93 22.3493H11.9638C10.0207 22.3493 8.82494 20.2588 9.83387 18.579ZM24.7805 17.4217L20.5581 10.3665C20.1845 9.73189 19.2876 9.73189 18.914 10.3665L14.6916 17.4217C14.2805 18.0564 14.7662 18.8776 15.5136 18.8776H23.9585C24.7058 18.8776 25.1542 18.0564 24.7805 17.4217Z" fill="#DAAB6B"/>
</svg>
