<svg width="232" height="96" viewBox="0 0 232 96" fill="none" xmlns="http://www.w3.org/2000/svg">
<rect width="232" height="96" fill="#E63F1E"/>
<mask id="path-1-outside-1_110_3484" maskUnits="userSpaceOnUse" x="69" y="51" width="132" height="28" fill="black">
<rect fill="white" x="69" y="51" width="132" height="28"/>
<path fill-rule="evenodd" clip-rule="evenodd" d="M118.998 69.0677C119.676 69.0677 120.161 69.2788 120.486 69.6489C120.837 70.0486 120.989 70.6241 120.989 71.3144V72.2362C120.989 72.9571 120.819 73.5043 120.462 73.8744C120.106 74.2468 119.573 74.4341 118.854 74.4341H117.988V77.9262H117.066V69.0677H118.998ZM118.854 73.5543C119.29 73.5543 119.597 73.4623 119.786 73.2636C119.978 73.0638 120.067 72.738 120.067 72.2714V71.2769C120.067 70.8557 119.999 70.5129 119.83 70.2847C119.67 70.069 119.404 69.9464 118.998 69.9464H117.988V73.5543H118.854ZM106.252 75.692C106.252 76.1382 106.336 76.5241 106.538 76.7796C106.705 76.9919 106.963 77.1202 107.334 77.1202C107.706 77.1202 107.964 76.9919 108.131 76.7796C108.332 76.5241 108.416 76.1382 108.416 75.692V69.0677H109.301V75.6693C109.301 76.3516 109.146 76.9567 108.791 77.3824C108.467 77.7673 107.986 78 107.321 78C106.656 78 106.172 77.7673 105.846 77.3801C105.49 76.9567 105.331 76.3516 105.331 75.6693V69.0677H106.252V75.692ZM93.5455 71.3269C93.5455 70.6366 93.7147 70.0372 94.0757 69.6172C94.4119 69.2255 94.9061 68.995 95.5729 68.995C96.2498 68.995 96.7496 69.2243 97.0892 69.6137C97.4558 70.0349 97.6251 70.6355 97.6251 71.3269V75.6682C97.6251 76.3584 97.4558 76.959 97.0892 77.379C96.7496 77.7684 96.2498 77.9989 95.5729 77.9989C94.9061 77.9989 94.4119 77.7684 94.0757 77.3767C93.7147 76.9567 93.5455 76.3573 93.5455 75.6682V71.3269ZM94.4672 75.7033C94.4672 76.1495 94.5552 76.5287 94.7572 76.7796C94.9298 76.9942 95.1949 77.1202 95.5729 77.1202C95.9576 77.1202 96.2295 76.993 96.4055 76.7785C96.6119 76.5264 96.7033 76.1484 96.7033 75.7033V71.2905C96.7033 70.8455 96.6119 70.4675 96.4066 70.2166C96.2295 70.002 95.9576 69.8737 95.5729 69.8737C95.1949 69.8737 94.9298 70.0009 94.7572 70.2143C94.5552 70.4652 94.4672 70.8444 94.4672 71.2905V75.7033ZM83.6918 69.0677C84.3924 69.0677 84.8911 69.2686 85.2171 69.6376C85.5398 70.0031 85.6842 70.5242 85.6842 71.1702V71.9081C85.6842 72.444 85.577 72.8697 85.3548 73.1921C85.2183 73.3919 85.04 73.5486 84.82 73.6655C85.0513 73.7881 85.2329 73.9539 85.3694 74.1582C85.5872 74.4852 85.6842 74.9041 85.6842 75.4002V76.7228C85.6842 76.892 85.6898 77.0691 85.7158 77.2292C85.7395 77.3824 85.7835 77.5266 85.858 77.6413L86.0407 77.9262H85.0208L84.9678 77.8331C84.8854 77.6867 84.8324 77.5266 84.8008 77.3393C84.7715 77.161 84.7625 76.9601 84.7625 76.7228V75.3889C84.7625 74.8882 84.6339 74.5726 84.4037 74.3887C84.1668 74.1991 83.8103 74.131 83.3658 74.131H82.6708V77.9262H81.7479V69.0677H83.6918ZM83.3793 73.2523C83.834 73.2523 84.1893 73.1921 84.4195 73.0093C84.6418 72.8334 84.7625 72.5234 84.7625 72.0171V71.2168C84.7625 70.8035 84.6869 70.4788 84.5143 70.2643C84.3484 70.0599 84.0777 69.9464 83.6805 69.9464H82.6708V73.2523H83.3793ZM74.0074 71.3257V72.1431H73.1093V71.2894C73.1093 70.8478 73.0236 70.4663 72.8216 70.2132C72.6524 70.0009 72.3906 69.8737 72.0172 69.8737C71.6427 69.8737 71.3798 70.0009 71.2106 70.2132C71.0086 70.4663 70.9229 70.8478 70.9229 71.2894V75.7033C70.9229 76.1438 71.0086 76.5219 71.2094 76.7728C71.3787 76.9828 71.6404 77.1077 72.0172 77.1077C72.3929 77.1077 72.6546 76.9828 72.8228 76.7728C73.0236 76.5219 73.1093 76.1438 73.1093 75.7033V74.0583H71.989V73.1785H74.0074V75.6682C74.0074 76.355 73.846 76.9578 73.4884 77.3801C73.1601 77.7684 72.6727 77.9989 72.0048 77.9989C71.3347 77.9989 70.8484 77.7684 70.519 77.3801C70.1613 76.9578 70 76.355 70 75.6682V71.3257C70 70.6389 70.1613 70.0361 70.5201 69.6137C70.8484 69.2266 71.3358 68.9962 72.0048 68.9962C72.6727 68.9962 73.159 69.2266 73.4884 69.6137C73.846 70.0361 74.0074 70.6389 74.0074 71.3257ZM196.561 60.9312H195.872V52.0738H196.909L199.125 58.353V52.0738H200V60.9312H199.071L196.745 54.2615V60.9312H196.561ZM184.063 54.333C184.063 53.6439 184.233 53.0433 184.594 52.6233C184.93 52.2316 185.424 52 186.09 52C186.767 52 187.267 52.2305 187.607 52.6199C187.972 53.041 188.143 53.6416 188.143 54.333V58.6731C188.143 59.3634 187.972 59.9639 187.607 60.384C187.267 60.7734 186.767 61.0038 186.09 61.0038C185.424 61.0038 184.93 60.7734 184.593 60.3817C184.233 59.9617 184.063 59.3622 184.063 58.6731V54.333ZM184.985 58.7095C184.985 59.1556 185.073 59.5348 185.276 59.7857C185.447 59.9991 185.713 60.1251 186.09 60.1251C186.475 60.1251 186.746 59.998 186.924 59.7823C187.13 59.5325 187.221 59.1545 187.221 58.7095V54.2955C187.221 53.8516 187.13 53.4747 186.924 53.2227C186.746 53.0081 186.475 52.881 186.09 52.881C185.713 52.881 185.447 53.007 185.275 53.2204C185.073 53.4713 184.985 53.8505 184.985 54.2955V58.7095ZM176.137 60.9312H175.399V52.0738H176.321V60.9312H176.137ZM165.254 60.7461V52.9514H163.542V52.0738H167.898V52.9514H166.176V60.9312H165.254V60.7461ZM156.114 54.333V55.2196H155.216V54.2955C155.216 53.8539 155.13 53.4724 154.928 53.2204C154.759 53.007 154.496 52.881 154.123 52.881C153.748 52.881 153.487 53.007 153.316 53.2193C153.115 53.4724 153.03 53.8539 153.03 54.2955V58.7095C153.03 59.1511 153.115 59.528 153.315 59.7778C153.484 59.9889 153.747 60.1138 154.123 60.1138C154.499 60.1138 154.76 59.9889 154.93 59.7778C155.13 59.528 155.216 59.1511 155.216 58.7095V57.5197H156.114V58.6731C156.114 59.3588 155.953 59.9617 155.595 60.3851C155.266 60.7722 154.78 61.0027 154.112 61.0027C153.443 61.0027 152.955 60.7722 152.627 60.3851C152.269 59.9628 152.108 59.36 152.108 58.6731V54.333C152.108 53.645 152.269 53.041 152.627 52.6199C152.955 52.2316 153.443 52.0011 154.112 52.0011C154.78 52.0011 155.266 52.2327 155.595 52.6199C155.953 53.0422 156.114 53.6461 156.114 54.333ZM141.329 58.697C141.329 59.142 141.414 59.5291 141.614 59.7846C141.78 59.998 142.039 60.1251 142.411 60.1251C142.783 60.1251 143.042 59.998 143.208 59.7846C143.408 59.5291 143.493 59.142 143.493 58.697V52.0738H144.379V58.6731C144.379 59.3554 144.223 59.9617 143.868 60.3863C143.545 60.7734 143.064 61.005 142.399 61.005C141.733 61.005 141.249 60.7722 140.923 60.3851C140.567 59.9617 140.407 59.3554 140.407 58.6731V52.0738H141.329V58.697ZM130.541 52.0738C131.243 52.0738 131.74 52.2747 132.066 52.6437C132.389 53.0081 132.534 53.5292 132.534 54.174V54.9131C132.534 55.4478 132.427 55.8747 132.204 56.1982C132.067 56.3969 131.89 56.5547 131.668 56.6716C131.901 56.7931 132.082 56.9589 132.219 57.1644C132.436 57.4913 132.534 57.9091 132.534 58.4063V59.7278C132.534 59.8981 132.538 60.0752 132.565 60.2353C132.589 60.3885 132.633 60.5316 132.706 60.6462L132.891 60.9312H131.87L131.816 60.8381C131.734 60.6928 131.681 60.5327 131.65 60.3442C131.622 60.1671 131.612 59.9662 131.612 59.7278V58.395C131.612 57.8943 131.482 57.5787 131.253 57.3948C131.016 57.2041 130.659 57.1348 130.215 57.1348H129.52V60.9312H128.599V52.0738H130.541ZM130.229 56.2573C130.684 56.2573 131.039 56.1971 131.269 56.0143C131.491 55.8395 131.612 55.5296 131.612 55.0221V54.2229C131.612 53.8096 131.536 53.4838 131.363 53.2692C131.198 53.0638 130.928 52.9514 130.53 52.9514H129.52V56.2573H130.229ZM118.452 60.7461V52.9514H116.741V52.0738H121.097V52.9514H119.374V60.9312H118.452V60.7461ZM109.313 54.308V54.6736H108.415V54.2717C108.415 53.8346 108.332 53.4588 108.134 53.2102C107.971 53.0036 107.715 52.8798 107.346 52.8798C106.977 52.8798 106.719 53.0024 106.555 53.2079C106.36 53.4531 106.276 53.8244 106.276 54.2592C106.276 55.164 106.953 55.6601 107.652 56.1721C108.476 56.7738 109.326 57.3971 109.326 58.6981C109.326 59.3827 109.165 59.9787 108.808 60.3942C108.479 60.7791 107.992 61.005 107.322 61.005C106.652 61.005 106.164 60.7791 105.836 60.3953C105.48 59.9787 105.318 59.3838 105.318 58.6981V58.0748H106.215V58.7333C106.215 59.1726 106.301 59.5427 106.498 59.7846C106.668 59.9923 106.932 60.1138 107.31 60.1138C107.689 60.1138 107.951 59.9923 108.121 59.7846C108.319 59.5427 108.404 59.1726 108.404 58.7333C108.404 57.8467 107.735 57.3573 107.041 56.8487C106.215 56.2436 105.355 55.6147 105.355 54.2955C105.355 53.5951 105.518 53.0161 105.86 52.613C106.188 52.2282 106.674 52.0079 107.332 52.0011C107.998 52.0011 108.479 52.2271 108.803 52.6096C109.155 53.0274 109.313 53.6223 109.313 54.308ZM94.1874 60.9312H93.4981V52.0738H94.5338L96.7518 58.353V52.0738H97.6251V60.9312H96.6965L94.3713 54.2615V60.9312H94.1874ZM81.6893 54.333C81.6893 53.6427 81.8596 53.0422 82.2195 52.6221C82.5557 52.2316 83.0487 52 83.7155 52C84.3924 52 84.8933 52.2305 85.2329 52.6199C85.5985 53.041 85.7688 53.6416 85.7688 54.333V58.6731C85.7688 59.3634 85.5985 59.9628 85.2329 60.384C84.8933 60.7734 84.3924 61.0038 83.7155 61.0038C83.0487 61.0038 82.5557 60.7734 82.2195 60.3817C81.8596 59.9617 81.6893 59.3622 81.6893 58.6731V54.333ZM82.6099 58.7095C82.6099 59.1556 82.6979 59.5348 82.8998 59.7846C83.0724 59.9991 83.3376 60.1251 83.7155 60.1251C84.1002 60.1251 84.3732 59.998 84.5481 59.7834C84.7546 59.5325 84.846 59.1533 84.846 58.7095V54.2955C84.846 53.8516 84.7546 53.4736 84.5492 53.2227C84.3721 53.0081 84.1002 52.881 83.7155 52.881C83.3376 52.881 83.0713 53.007 82.8998 53.2204C82.6979 53.4713 82.6099 53.8505 82.6099 54.2955V58.7095ZM74.0074 54.333V55.2196H73.1093V54.2955C73.1093 53.8539 73.0236 53.4724 72.8216 53.2204C72.6524 53.007 72.3906 52.881 72.0172 52.881C71.6415 52.881 71.3798 53.007 71.2106 53.2193C71.0086 53.4724 70.9229 53.8539 70.9229 54.2955V58.7095C70.9229 59.1511 71.0075 59.5291 71.2083 59.7778C71.3787 59.9889 71.6404 60.1138 72.0172 60.1138C72.3918 60.1138 72.6546 59.9889 72.8228 59.7778C73.0236 59.5291 73.1093 59.1511 73.1093 58.7095V57.5197H74.0074V58.6731C74.0074 59.3588 73.846 59.9628 73.4884 60.3851C73.1601 60.7722 72.6727 61.0027 72.0048 61.0027C71.3347 61.0027 70.8484 60.7722 70.519 60.3851C70.1613 59.9628 70 59.36 70 58.6731V54.333C70 53.6461 70.1613 53.0422 70.5201 52.6199C70.8484 52.2316 71.3347 52.0011 72.0048 52.0011C72.6727 52.0011 73.159 52.2327 73.4884 52.6199C73.846 53.0422 74.0074 53.645 74.0074 54.333Z"/>
</mask>
<path fill-rule="evenodd" clip-rule="evenodd" d="M118.998 69.0677C119.676 69.0677 120.161 69.2788 120.486 69.6489C120.837 70.0486 120.989 70.6241 120.989 71.3144V72.2362C120.989 72.9571 120.819 73.5043 120.462 73.8744C120.106 74.2468 119.573 74.4341 118.854 74.4341H117.988V77.9262H117.066V69.0677H118.998ZM118.854 73.5543C119.29 73.5543 119.597 73.4623 119.786 73.2636C119.978 73.0638 120.067 72.738 120.067 72.2714V71.2769C120.067 70.8557 119.999 70.5129 119.83 70.2847C119.67 70.069 119.404 69.9464 118.998 69.9464H117.988V73.5543H118.854ZM106.252 75.692C106.252 76.1382 106.336 76.5241 106.538 76.7796C106.705 76.9919 106.963 77.1202 107.334 77.1202C107.706 77.1202 107.964 76.9919 108.131 76.7796C108.332 76.5241 108.416 76.1382 108.416 75.692V69.0677H109.301V75.6693C109.301 76.3516 109.146 76.9567 108.791 77.3824C108.467 77.7673 107.986 78 107.321 78C106.656 78 106.172 77.7673 105.846 77.3801C105.49 76.9567 105.331 76.3516 105.331 75.6693V69.0677H106.252V75.692ZM93.5455 71.3269C93.5455 70.6366 93.7147 70.0372 94.0757 69.6172C94.4119 69.2255 94.9061 68.995 95.5729 68.995C96.2498 68.995 96.7496 69.2243 97.0892 69.6137C97.4558 70.0349 97.6251 70.6355 97.6251 71.3269V75.6682C97.6251 76.3584 97.4558 76.959 97.0892 77.379C96.7496 77.7684 96.2498 77.9989 95.5729 77.9989C94.9061 77.9989 94.4119 77.7684 94.0757 77.3767C93.7147 76.9567 93.5455 76.3573 93.5455 75.6682V71.3269ZM94.4672 75.7033C94.4672 76.1495 94.5552 76.5287 94.7572 76.7796C94.9298 76.9942 95.1949 77.1202 95.5729 77.1202C95.9576 77.1202 96.2295 76.993 96.4055 76.7785C96.6119 76.5264 96.7033 76.1484 96.7033 75.7033V71.2905C96.7033 70.8455 96.6119 70.4675 96.4066 70.2166C96.2295 70.002 95.9576 69.8737 95.5729 69.8737C95.1949 69.8737 94.9298 70.0009 94.7572 70.2143C94.5552 70.4652 94.4672 70.8444 94.4672 71.2905V75.7033ZM83.6918 69.0677C84.3924 69.0677 84.8911 69.2686 85.2171 69.6376C85.5398 70.0031 85.6842 70.5242 85.6842 71.1702V71.9081C85.6842 72.444 85.577 72.8697 85.3548 73.1921C85.2183 73.3919 85.04 73.5486 84.82 73.6655C85.0513 73.7881 85.2329 73.9539 85.3694 74.1582C85.5872 74.4852 85.6842 74.9041 85.6842 75.4002V76.7228C85.6842 76.892 85.6898 77.0691 85.7158 77.2292C85.7395 77.3824 85.7835 77.5266 85.858 77.6413L86.0407 77.9262H85.0208L84.9678 77.8331C84.8854 77.6867 84.8324 77.5266 84.8008 77.3393C84.7715 77.161 84.7625 76.9601 84.7625 76.7228V75.3889C84.7625 74.8882 84.6339 74.5726 84.4037 74.3887C84.1668 74.1991 83.8103 74.131 83.3658 74.131H82.6708V77.9262H81.7479V69.0677H83.6918ZM83.3793 73.2523C83.834 73.2523 84.1893 73.1921 84.4195 73.0093C84.6418 72.8334 84.7625 72.5234 84.7625 72.0171V71.2168C84.7625 70.8035 84.6869 70.4788 84.5143 70.2643C84.3484 70.0599 84.0777 69.9464 83.6805 69.9464H82.6708V73.2523H83.3793ZM74.0074 71.3257V72.1431H73.1093V71.2894C73.1093 70.8478 73.0236 70.4663 72.8216 70.2132C72.6524 70.0009 72.3906 69.8737 72.0172 69.8737C71.6427 69.8737 71.3798 70.0009 71.2106 70.2132C71.0086 70.4663 70.9229 70.8478 70.9229 71.2894V75.7033C70.9229 76.1438 71.0086 76.5219 71.2094 76.7728C71.3787 76.9828 71.6404 77.1077 72.0172 77.1077C72.3929 77.1077 72.6546 76.9828 72.8228 76.7728C73.0236 76.5219 73.1093 76.1438 73.1093 75.7033V74.0583H71.989V73.1785H74.0074V75.6682C74.0074 76.355 73.846 76.9578 73.4884 77.3801C73.1601 77.7684 72.6727 77.9989 72.0048 77.9989C71.3347 77.9989 70.8484 77.7684 70.519 77.3801C70.1613 76.9578 70 76.355 70 75.6682V71.3257C70 70.6389 70.1613 70.0361 70.5201 69.6137C70.8484 69.2266 71.3358 68.9962 72.0048 68.9962C72.6727 68.9962 73.159 69.2266 73.4884 69.6137C73.846 70.0361 74.0074 70.6389 74.0074 71.3257ZM196.561 60.9312H195.872V52.0738H196.909L199.125 58.353V52.0738H200V60.9312H199.071L196.745 54.2615V60.9312H196.561ZM184.063 54.333C184.063 53.6439 184.233 53.0433 184.594 52.6233C184.93 52.2316 185.424 52 186.09 52C186.767 52 187.267 52.2305 187.607 52.6199C187.972 53.041 188.143 53.6416 188.143 54.333V58.6731C188.143 59.3634 187.972 59.9639 187.607 60.384C187.267 60.7734 186.767 61.0038 186.09 61.0038C185.424 61.0038 184.93 60.7734 184.593 60.3817C184.233 59.9617 184.063 59.3622 184.063 58.6731V54.333ZM184.985 58.7095C184.985 59.1556 185.073 59.5348 185.276 59.7857C185.447 59.9991 185.713 60.1251 186.09 60.1251C186.475 60.1251 186.746 59.998 186.924 59.7823C187.13 59.5325 187.221 59.1545 187.221 58.7095V54.2955C187.221 53.8516 187.13 53.4747 186.924 53.2227C186.746 53.0081 186.475 52.881 186.09 52.881C185.713 52.881 185.447 53.007 185.275 53.2204C185.073 53.4713 184.985 53.8505 184.985 54.2955V58.7095ZM176.137 60.9312H175.399V52.0738H176.321V60.9312H176.137ZM165.254 60.7461V52.9514H163.542V52.0738H167.898V52.9514H166.176V60.9312H165.254V60.7461ZM156.114 54.333V55.2196H155.216V54.2955C155.216 53.8539 155.13 53.4724 154.928 53.2204C154.759 53.007 154.496 52.881 154.123 52.881C153.748 52.881 153.487 53.007 153.316 53.2193C153.115 53.4724 153.03 53.8539 153.03 54.2955V58.7095C153.03 59.1511 153.115 59.528 153.315 59.7778C153.484 59.9889 153.747 60.1138 154.123 60.1138C154.499 60.1138 154.76 59.9889 154.93 59.7778C155.13 59.528 155.216 59.1511 155.216 58.7095V57.5197H156.114V58.6731C156.114 59.3588 155.953 59.9617 155.595 60.3851C155.266 60.7722 154.78 61.0027 154.112 61.0027C153.443 61.0027 152.955 60.7722 152.627 60.3851C152.269 59.9628 152.108 59.36 152.108 58.6731V54.333C152.108 53.645 152.269 53.041 152.627 52.6199C152.955 52.2316 153.443 52.0011 154.112 52.0011C154.78 52.0011 155.266 52.2327 155.595 52.6199C155.953 53.0422 156.114 53.6461 156.114 54.333ZM141.329 58.697C141.329 59.142 141.414 59.5291 141.614 59.7846C141.78 59.998 142.039 60.1251 142.411 60.1251C142.783 60.1251 143.042 59.998 143.208 59.7846C143.408 59.5291 143.493 59.142 143.493 58.697V52.0738H144.379V58.6731C144.379 59.3554 144.223 59.9617 143.868 60.3863C143.545 60.7734 143.064 61.005 142.399 61.005C141.733 61.005 141.249 60.7722 140.923 60.3851C140.567 59.9617 140.407 59.3554 140.407 58.6731V52.0738H141.329V58.697ZM130.541 52.0738C131.243 52.0738 131.74 52.2747 132.066 52.6437C132.389 53.0081 132.534 53.5292 132.534 54.174V54.9131C132.534 55.4478 132.427 55.8747 132.204 56.1982C132.067 56.3969 131.89 56.5547 131.668 56.6716C131.901 56.7931 132.082 56.9589 132.219 57.1644C132.436 57.4913 132.534 57.9091 132.534 58.4063V59.7278C132.534 59.8981 132.538 60.0752 132.565 60.2353C132.589 60.3885 132.633 60.5316 132.706 60.6462L132.891 60.9312H131.87L131.816 60.8381C131.734 60.6928 131.681 60.5327 131.65 60.3442C131.622 60.1671 131.612 59.9662 131.612 59.7278V58.395C131.612 57.8943 131.482 57.5787 131.253 57.3948C131.016 57.2041 130.659 57.1348 130.215 57.1348H129.52V60.9312H128.599V52.0738H130.541ZM130.229 56.2573C130.684 56.2573 131.039 56.1971 131.269 56.0143C131.491 55.8395 131.612 55.5296 131.612 55.0221V54.2229C131.612 53.8096 131.536 53.4838 131.363 53.2692C131.198 53.0638 130.928 52.9514 130.53 52.9514H129.52V56.2573H130.229ZM118.452 60.7461V52.9514H116.741V52.0738H121.097V52.9514H119.374V60.9312H118.452V60.7461ZM109.313 54.308V54.6736H108.415V54.2717C108.415 53.8346 108.332 53.4588 108.134 53.2102C107.971 53.0036 107.715 52.8798 107.346 52.8798C106.977 52.8798 106.719 53.0024 106.555 53.2079C106.36 53.4531 106.276 53.8244 106.276 54.2592C106.276 55.164 106.953 55.6601 107.652 56.1721C108.476 56.7738 109.326 57.3971 109.326 58.6981C109.326 59.3827 109.165 59.9787 108.808 60.3942C108.479 60.7791 107.992 61.005 107.322 61.005C106.652 61.005 106.164 60.7791 105.836 60.3953C105.48 59.9787 105.318 59.3838 105.318 58.6981V58.0748H106.215V58.7333C106.215 59.1726 106.301 59.5427 106.498 59.7846C106.668 59.9923 106.932 60.1138 107.31 60.1138C107.689 60.1138 107.951 59.9923 108.121 59.7846C108.319 59.5427 108.404 59.1726 108.404 58.7333C108.404 57.8467 107.735 57.3573 107.041 56.8487C106.215 56.2436 105.355 55.6147 105.355 54.2955C105.355 53.5951 105.518 53.0161 105.86 52.613C106.188 52.2282 106.674 52.0079 107.332 52.0011C107.998 52.0011 108.479 52.2271 108.803 52.6096C109.155 53.0274 109.313 53.6223 109.313 54.308ZM94.1874 60.9312H93.4981V52.0738H94.5338L96.7518 58.353V52.0738H97.6251V60.9312H96.6965L94.3713 54.2615V60.9312H94.1874ZM81.6893 54.333C81.6893 53.6427 81.8596 53.0422 82.2195 52.6221C82.5557 52.2316 83.0487 52 83.7155 52C84.3924 52 84.8933 52.2305 85.2329 52.6199C85.5985 53.041 85.7688 53.6416 85.7688 54.333V58.6731C85.7688 59.3634 85.5985 59.9628 85.2329 60.384C84.8933 60.7734 84.3924 61.0038 83.7155 61.0038C83.0487 61.0038 82.5557 60.7734 82.2195 60.3817C81.8596 59.9617 81.6893 59.3622 81.6893 58.6731V54.333ZM82.6099 58.7095C82.6099 59.1556 82.6979 59.5348 82.8998 59.7846C83.0724 59.9991 83.3376 60.1251 83.7155 60.1251C84.1002 60.1251 84.3732 59.998 84.5481 59.7834C84.7546 59.5325 84.846 59.1533 84.846 58.7095V54.2955C84.846 53.8516 84.7546 53.4736 84.5492 53.2227C84.3721 53.0081 84.1002 52.881 83.7155 52.881C83.3376 52.881 83.0713 53.007 82.8998 53.2204C82.6979 53.4713 82.6099 53.8505 82.6099 54.2955V58.7095ZM74.0074 54.333V55.2196H73.1093V54.2955C73.1093 53.8539 73.0236 53.4724 72.8216 53.2204C72.6524 53.007 72.3906 52.881 72.0172 52.881C71.6415 52.881 71.3798 53.007 71.2106 53.2193C71.0086 53.4724 70.9229 53.8539 70.9229 54.2955V58.7095C70.9229 59.1511 71.0075 59.5291 71.2083 59.7778C71.3787 59.9889 71.6404 60.1138 72.0172 60.1138C72.3918 60.1138 72.6546 59.9889 72.8228 59.7778C73.0236 59.5291 73.1093 59.1511 73.1093 58.7095V57.5197H74.0074V58.6731C74.0074 59.3588 73.846 59.9628 73.4884 60.3851C73.1601 60.7722 72.6727 61.0027 72.0048 61.0027C71.3347 61.0027 70.8484 60.7722 70.519 60.3851C70.1613 59.9628 70 59.36 70 58.6731V54.333C70 53.6461 70.1613 53.0422 70.5201 52.6199C70.8484 52.2316 71.3347 52.0011 72.0048 52.0011C72.6727 52.0011 73.159 52.2327 73.4884 52.6199C73.846 53.0422 74.0074 53.645 74.0074 54.333Z" fill="white"/>
<path fill-rule="evenodd" clip-rule="evenodd" d="M118.998 69.0677C119.676 69.0677 120.161 69.2788 120.486 69.6489C120.837 70.0486 120.989 70.6241 120.989 71.3144V72.2362C120.989 72.9571 120.819 73.5043 120.462 73.8744C120.106 74.2468 119.573 74.4341 118.854 74.4341H117.988V77.9262H117.066V69.0677H118.998ZM118.854 73.5543C119.29 73.5543 119.597 73.4623 119.786 73.2636C119.978 73.0638 120.067 72.738 120.067 72.2714V71.2769C120.067 70.8557 119.999 70.5129 119.83 70.2847C119.67 70.069 119.404 69.9464 118.998 69.9464H117.988V73.5543H118.854ZM106.252 75.692C106.252 76.1382 106.336 76.5241 106.538 76.7796C106.705 76.9919 106.963 77.1202 107.334 77.1202C107.706 77.1202 107.964 76.9919 108.131 76.7796C108.332 76.5241 108.416 76.1382 108.416 75.692V69.0677H109.301V75.6693C109.301 76.3516 109.146 76.9567 108.791 77.3824C108.467 77.7673 107.986 78 107.321 78C106.656 78 106.172 77.7673 105.846 77.3801C105.49 76.9567 105.331 76.3516 105.331 75.6693V69.0677H106.252V75.692ZM93.5455 71.3269C93.5455 70.6366 93.7147 70.0372 94.0757 69.6172C94.4119 69.2255 94.9061 68.995 95.5729 68.995C96.2498 68.995 96.7496 69.2243 97.0892 69.6137C97.4558 70.0349 97.6251 70.6355 97.6251 71.3269V75.6682C97.6251 76.3584 97.4558 76.959 97.0892 77.379C96.7496 77.7684 96.2498 77.9989 95.5729 77.9989C94.9061 77.9989 94.4119 77.7684 94.0757 77.3767C93.7147 76.9567 93.5455 76.3573 93.5455 75.6682V71.3269ZM94.4672 75.7033C94.4672 76.1495 94.5552 76.5287 94.7572 76.7796C94.9298 76.9942 95.1949 77.1202 95.5729 77.1202C95.9576 77.1202 96.2295 76.993 96.4055 76.7785C96.6119 76.5264 96.7033 76.1484 96.7033 75.7033V71.2905C96.7033 70.8455 96.6119 70.4675 96.4066 70.2166C96.2295 70.002 95.9576 69.8737 95.5729 69.8737C95.1949 69.8737 94.9298 70.0009 94.7572 70.2143C94.5552 70.4652 94.4672 70.8444 94.4672 71.2905V75.7033ZM83.6918 69.0677C84.3924 69.0677 84.8911 69.2686 85.2171 69.6376C85.5398 70.0031 85.6842 70.5242 85.6842 71.1702V71.9081C85.6842 72.444 85.577 72.8697 85.3548 73.1921C85.2183 73.3919 85.04 73.5486 84.82 73.6655C85.0513 73.7881 85.2329 73.9539 85.3694 74.1582C85.5872 74.4852 85.6842 74.9041 85.6842 75.4002V76.7228C85.6842 76.892 85.6898 77.0691 85.7158 77.2292C85.7395 77.3824 85.7835 77.5266 85.858 77.6413L86.0407 77.9262H85.0208L84.9678 77.8331C84.8854 77.6867 84.8324 77.5266 84.8008 77.3393C84.7715 77.161 84.7625 76.9601 84.7625 76.7228V75.3889C84.7625 74.8882 84.6339 74.5726 84.4037 74.3887C84.1668 74.1991 83.8103 74.131 83.3658 74.131H82.6708V77.9262H81.7479V69.0677H83.6918ZM83.3793 73.2523C83.834 73.2523 84.1893 73.1921 84.4195 73.0093C84.6418 72.8334 84.7625 72.5234 84.7625 72.0171V71.2168C84.7625 70.8035 84.6869 70.4788 84.5143 70.2643C84.3484 70.0599 84.0777 69.9464 83.6805 69.9464H82.6708V73.2523H83.3793ZM74.0074 71.3257V72.1431H73.1093V71.2894C73.1093 70.8478 73.0236 70.4663 72.8216 70.2132C72.6524 70.0009 72.3906 69.8737 72.0172 69.8737C71.6427 69.8737 71.3798 70.0009 71.2106 70.2132C71.0086 70.4663 70.9229 70.8478 70.9229 71.2894V75.7033C70.9229 76.1438 71.0086 76.5219 71.2094 76.7728C71.3787 76.9828 71.6404 77.1077 72.0172 77.1077C72.3929 77.1077 72.6546 76.9828 72.8228 76.7728C73.0236 76.5219 73.1093 76.1438 73.1093 75.7033V74.0583H71.989V73.1785H74.0074V75.6682C74.0074 76.355 73.846 76.9578 73.4884 77.3801C73.1601 77.7684 72.6727 77.9989 72.0048 77.9989C71.3347 77.9989 70.8484 77.7684 70.519 77.3801C70.1613 76.9578 70 76.355 70 75.6682V71.3257C70 70.6389 70.1613 70.0361 70.5201 69.6137C70.8484 69.2266 71.3358 68.9962 72.0048 68.9962C72.6727 68.9962 73.159 69.2266 73.4884 69.6137C73.846 70.0361 74.0074 70.6389 74.0074 71.3257ZM196.561 60.9312H195.872V52.0738H196.909L199.125 58.353V52.0738H200V60.9312H199.071L196.745 54.2615V60.9312H196.561ZM184.063 54.333C184.063 53.6439 184.233 53.0433 184.594 52.6233C184.93 52.2316 185.424 52 186.09 52C186.767 52 187.267 52.2305 187.607 52.6199C187.972 53.041 188.143 53.6416 188.143 54.333V58.6731C188.143 59.3634 187.972 59.9639 187.607 60.384C187.267 60.7734 186.767 61.0038 186.09 61.0038C185.424 61.0038 184.93 60.7734 184.593 60.3817C184.233 59.9617 184.063 59.3622 184.063 58.6731V54.333ZM184.985 58.7095C184.985 59.1556 185.073 59.5348 185.276 59.7857C185.447 59.9991 185.713 60.1251 186.09 60.1251C186.475 60.1251 186.746 59.998 186.924 59.7823C187.13 59.5325 187.221 59.1545 187.221 58.7095V54.2955C187.221 53.8516 187.13 53.4747 186.924 53.2227C186.746 53.0081 186.475 52.881 186.09 52.881C185.713 52.881 185.447 53.007 185.275 53.2204C185.073 53.4713 184.985 53.8505 184.985 54.2955V58.7095ZM176.137 60.9312H175.399V52.0738H176.321V60.9312H176.137ZM165.254 60.7461V52.9514H163.542V52.0738H167.898V52.9514H166.176V60.9312H165.254V60.7461ZM156.114 54.333V55.2196H155.216V54.2955C155.216 53.8539 155.13 53.4724 154.928 53.2204C154.759 53.007 154.496 52.881 154.123 52.881C153.748 52.881 153.487 53.007 153.316 53.2193C153.115 53.4724 153.03 53.8539 153.03 54.2955V58.7095C153.03 59.1511 153.115 59.528 153.315 59.7778C153.484 59.9889 153.747 60.1138 154.123 60.1138C154.499 60.1138 154.76 59.9889 154.93 59.7778C155.13 59.528 155.216 59.1511 155.216 58.7095V57.5197H156.114V58.6731C156.114 59.3588 155.953 59.9617 155.595 60.3851C155.266 60.7722 154.78 61.0027 154.112 61.0027C153.443 61.0027 152.955 60.7722 152.627 60.3851C152.269 59.9628 152.108 59.36 152.108 58.6731V54.333C152.108 53.645 152.269 53.041 152.627 52.6199C152.955 52.2316 153.443 52.0011 154.112 52.0011C154.78 52.0011 155.266 52.2327 155.595 52.6199C155.953 53.0422 156.114 53.6461 156.114 54.333ZM141.329 58.697C141.329 59.142 141.414 59.5291 141.614 59.7846C141.78 59.998 142.039 60.1251 142.411 60.1251C142.783 60.1251 143.042 59.998 143.208 59.7846C143.408 59.5291 143.493 59.142 143.493 58.697V52.0738H144.379V58.6731C144.379 59.3554 144.223 59.9617 143.868 60.3863C143.545 60.7734 143.064 61.005 142.399 61.005C141.733 61.005 141.249 60.7722 140.923 60.3851C140.567 59.9617 140.407 59.3554 140.407 58.6731V52.0738H141.329V58.697ZM130.541 52.0738C131.243 52.0738 131.74 52.2747 132.066 52.6437C132.389 53.0081 132.534 53.5292 132.534 54.174V54.9131C132.534 55.4478 132.427 55.8747 132.204 56.1982C132.067 56.3969 131.89 56.5547 131.668 56.6716C131.901 56.7931 132.082 56.9589 132.219 57.1644C132.436 57.4913 132.534 57.9091 132.534 58.4063V59.7278C132.534 59.8981 132.538 60.0752 132.565 60.2353C132.589 60.3885 132.633 60.5316 132.706 60.6462L132.891 60.9312H131.87L131.816 60.8381C131.734 60.6928 131.681 60.5327 131.65 60.3442C131.622 60.1671 131.612 59.9662 131.612 59.7278V58.395C131.612 57.8943 131.482 57.5787 131.253 57.3948C131.016 57.2041 130.659 57.1348 130.215 57.1348H129.52V60.9312H128.599V52.0738H130.541ZM130.229 56.2573C130.684 56.2573 131.039 56.1971 131.269 56.0143C131.491 55.8395 131.612 55.5296 131.612 55.0221V54.2229C131.612 53.8096 131.536 53.4838 131.363 53.2692C131.198 53.0638 130.928 52.9514 130.53 52.9514H129.52V56.2573H130.229ZM118.452 60.7461V52.9514H116.741V52.0738H121.097V52.9514H119.374V60.9312H118.452V60.7461ZM109.313 54.308V54.6736H108.415V54.2717C108.415 53.8346 108.332 53.4588 108.134 53.2102C107.971 53.0036 107.715 52.8798 107.346 52.8798C106.977 52.8798 106.719 53.0024 106.555 53.2079C106.36 53.4531 106.276 53.8244 106.276 54.2592C106.276 55.164 106.953 55.6601 107.652 56.1721C108.476 56.7738 109.326 57.3971 109.326 58.6981C109.326 59.3827 109.165 59.9787 108.808 60.3942C108.479 60.7791 107.992 61.005 107.322 61.005C106.652 61.005 106.164 60.7791 105.836 60.3953C105.48 59.9787 105.318 59.3838 105.318 58.6981V58.0748H106.215V58.7333C106.215 59.1726 106.301 59.5427 106.498 59.7846C106.668 59.9923 106.932 60.1138 107.31 60.1138C107.689 60.1138 107.951 59.9923 108.121 59.7846C108.319 59.5427 108.404 59.1726 108.404 58.7333C108.404 57.8467 107.735 57.3573 107.041 56.8487C106.215 56.2436 105.355 55.6147 105.355 54.2955C105.355 53.5951 105.518 53.0161 105.86 52.613C106.188 52.2282 106.674 52.0079 107.332 52.0011C107.998 52.0011 108.479 52.2271 108.803 52.6096C109.155 53.0274 109.313 53.6223 109.313 54.308ZM94.1874 60.9312H93.4981V52.0738H94.5338L96.7518 58.353V52.0738H97.6251V60.9312H96.6965L94.3713 54.2615V60.9312H94.1874ZM81.6893 54.333C81.6893 53.6427 81.8596 53.0422 82.2195 52.6221C82.5557 52.2316 83.0487 52 83.7155 52C84.3924 52 84.8933 52.2305 85.2329 52.6199C85.5985 53.041 85.7688 53.6416 85.7688 54.333V58.6731C85.7688 59.3634 85.5985 59.9628 85.2329 60.384C84.8933 60.7734 84.3924 61.0038 83.7155 61.0038C83.0487 61.0038 82.5557 60.7734 82.2195 60.3817C81.8596 59.9617 81.6893 59.3622 81.6893 58.6731V54.333ZM82.6099 58.7095C82.6099 59.1556 82.6979 59.5348 82.8998 59.7846C83.0724 59.9991 83.3376 60.1251 83.7155 60.1251C84.1002 60.1251 84.3732 59.998 84.5481 59.7834C84.7546 59.5325 84.846 59.1533 84.846 58.7095V54.2955C84.846 53.8516 84.7546 53.4736 84.5492 53.2227C84.3721 53.0081 84.1002 52.881 83.7155 52.881C83.3376 52.881 83.0713 53.007 82.8998 53.2204C82.6979 53.4713 82.6099 53.8505 82.6099 54.2955V58.7095ZM74.0074 54.333V55.2196H73.1093V54.2955C73.1093 53.8539 73.0236 53.4724 72.8216 53.2204C72.6524 53.007 72.3906 52.881 72.0172 52.881C71.6415 52.881 71.3798 53.007 71.2106 53.2193C71.0086 53.4724 70.9229 53.8539 70.9229 54.2955V58.7095C70.9229 59.1511 71.0075 59.5291 71.2083 59.7778C71.3787 59.9889 71.6404 60.1138 72.0172 60.1138C72.3918 60.1138 72.6546 59.9889 72.8228 59.7778C73.0236 59.5291 73.1093 59.1511 73.1093 58.7095V57.5197H74.0074V58.6731C74.0074 59.3588 73.846 59.9628 73.4884 60.3851C73.1601 60.7722 72.6727 61.0027 72.0048 61.0027C71.3347 61.0027 70.8484 60.7722 70.519 60.3851C70.1613 59.9628 70 59.36 70 58.6731V54.333C70 53.6461 70.1613 53.0422 70.5201 52.6199C70.8484 52.2316 71.3347 52.0011 72.0048 52.0011C72.6727 52.0011 73.159 52.2327 73.4884 52.6199C73.846 53.0422 74.0074 53.645 74.0074 54.333Z" stroke="white" stroke-width="0.28" mask="url(#path-1-outside-1_110_3484)"/>
<path fill-rule="evenodd" clip-rule="evenodd" d="M71.731 40H70V29.0012H71.731V33.7153H73.6999V29.0012H75.4617V40H73.6999V35.2871H71.731V40ZM87.755 36.5102H89.4233L88.5885 30.9476L87.755 36.5102ZM91.7048 40H89.9584L89.6601 38.0052H87.5348L87.2364 40H85.6452L87.4081 29H89.943L91.7048 40ZM102.74 36.3542L100.552 29H102.362L103.684 34.0131L105.006 29H106.66L104.471 36.3542V40H102.74V36.3542ZM117.614 36.5102H119.283L118.45 30.9476L117.614 36.5102ZM121.566 40H119.818L119.52 38.0052H117.395L117.095 40H115.505L117.268 29H119.803L121.566 40ZM130.647 29H136V30.5706H134.188V39.9988H132.459V30.5706H130.647V29Z" fill="#252626"/>
<path fill-rule="evenodd" clip-rule="evenodd" d="M42 54H36V14H42V54ZM42 69H36V57H42V69ZM54 54H48V29H54V54ZM54 78H48V57H54V78Z" fill="white"/>
</svg>
