<svg width="310" height="492" viewBox="0 0 310 492" fill="none" xmlns="http://www.w3.org/2000/svg">
<g clip-path="url(#clip0_149_21091)">
<path fill-rule="evenodd" clip-rule="evenodd" d="M13.356 359.571L99.5465 359.571L99.6005 448.601L13.356 448.601L13.356 359.571Z" fill="#F7F9FA"/>
<mask id="mask0_149_21091" style="mask-type:luminance" maskUnits="userSpaceOnUse" x="13" y="359" width="87" height="90">
<path d="M13.356 359.571L99.5465 359.571L99.6005 448.601L13.356 448.601L13.356 359.571Z" fill="white"/>
</mask>
<g mask="url(#mask0_149_21091)">
<path d="M48.3327 518.989L48.3327 265.876M63.6879 518.989L63.6879 265.876M32.9596 518.989L32.9596 265.876M17.6044 518.989L17.6044 265.876M2.24925 518.989L2.24924 265.876M94.3982 518.989L94.3982 265.876M109.753 518.989L109.753 265.876M79.0431 518.989L79.0431 265.876M131.841 428.626L-36.2017 428.626M131.841 459.354L-36.2017 459.354M131.841 397.881L-36.2017 397.881M131.841 336.426L-36.2017 336.426M131.841 367.154L-36.2017 367.154M131.841 305.681L-36.2017 305.681M131.841 274.954L-36.2017 274.954M131.841 490.099L-36.2017 490.099" stroke="#899396" stroke-width="0.157061" stroke-linecap="round" stroke-linejoin="round"/>
</g>
<path d="M13.356 359.571L99.5465 359.571L99.6005 448.601L13.356 448.601L13.356 359.571Z" stroke="#0B262E" stroke-width="0.167532" stroke-miterlimit="10" stroke-linecap="round" stroke-linejoin="round"/>
<path fill-rule="evenodd" clip-rule="evenodd" d="M296.553 452.437L179.202 452.437L179.202 477.959L165.935 477.959L165.935 483.074L114.902 483.074L114.902 477.959L104.695 477.959L104.695 318.667L13.3559 318.667L13.3559 37.3838L14.544 37.8161L88.5116 11.8618L162.479 37.798L236.609 11.8617L290.379 30.7016L290.271 66.7783L296.661 66.7783L296.553 452.437Z" fill="white"/>
<mask id="mask1_149_21091" style="mask-type:luminance" maskUnits="userSpaceOnUse" x="13" y="11" width="284" height="473">
<path d="M296.553 452.437L179.202 452.437L179.202 477.959L165.935 477.959L165.935 483.074L114.902 483.074L114.902 477.959L104.695 477.959L104.695 318.667L13.3559 318.667L13.3559 37.3838L14.544 37.8161L88.5116 11.8618L162.479 37.798L236.609 11.8617L290.379 30.7016L290.271 66.7783L296.661 66.7783L296.553 452.437Z" fill="white"/>
</mask>
<g mask="url(#mask1_149_21091)">
<path d="M11.8433 -359.045L11.8434 787.61M4.98481 -359.045L4.98486 787.61M25.5424 -359.045L25.5424 787.61M18.6838 -359.045L18.6839 787.61M46.0999 -359.045L46.1 787.61M39.2594 -359.045L39.2595 787.61M59.817 -359.045L59.817 787.61M52.9584 -359.045L52.9585 787.61M32.4009 -359.045L32.4009 787.61M135.225 -359.045L135.225 787.61M73.534 -359.045L73.5341 787.61M128.366 -359.045L128.366 787.61M66.6755 -359.045L66.6755 787.61M148.924 -359.045L148.924 787.61M87.233 -359.045L87.2331 787.61M142.065 -359.045L142.065 787.61M80.3745 -359.045L80.3746 787.61M169.481 -359.045L169.481 787.61M107.791 -359.045L107.791 787.61M162.641 -359.045L162.641 787.61M100.95 -359.045L100.95 787.61M183.198 -359.045L183.198 787.61M121.508 -359.045L121.508 787.61M176.34 -359.045L176.34 787.61M114.649 -359.045L114.649 787.61M155.782 -359.045L155.782 787.61M94.0916 -359.045L94.0916 787.61M258.588 -359.045L258.588 787.61M196.897 -359.045L196.897 787.61M251.73 -359.045L251.73 787.61M190.039 -359.045L190.039 787.61M272.305 -359.045L272.305 787.61M210.614 -359.045L210.614 787.61M265.447 -359.045L265.447 787.61M203.756 -359.045L203.756 787.61M292.863 -359.045L292.863 787.61M231.172 -359.045L231.172 787.61M286.004 -359.045L286.004 787.61M224.313 -359.045L224.313 787.61M306.58 -359.045L306.58 787.61M244.889 -359.045L244.889 787.61M299.721 -359.045L299.721 787.61M238.03 -359.045L238.031 787.61M279.164 -359.045L279.164 787.61M217.473 -359.045L217.473 787.61" stroke="#899396" stroke-width="0.157061" stroke-linecap="round" stroke-linejoin="round"/>
<path d="M52.9586 362.039L59.8171 362.039M25.5425 348.314L32.401 348.314M39.2596 430.626L46.1001 430.626M18.684 410.039L25.5425 410.039M46.1001 389.47L52.9586 389.47M4.98498 382.608L11.8435 382.608M4.98498 464.901L-1.87354 464.901M11.8435 451.195L18.684 451.195M32.4011 458.057L39.2596 458.057M52.9586 224.864L59.8171 224.864M25.5425 211.158L32.401 211.158M39.2596 293.451L46.1001 293.451M18.684 272.883L25.5425 272.883M46.1001 252.296L52.9586 252.296M4.98497 245.451L11.8435 245.451M4.98498 327.745L-1.87354 327.745M11.8435 314.02L18.684 314.02M32.401 320.883L39.2596 320.883" stroke="#899396" stroke-width="0.157061" stroke-linecap="round" stroke-linejoin="round"/>
<path d="M176.34 362.039L183.199 362.039M114.65 362.039L121.508 362.039M148.924 348.314L155.783 348.314M87.2334 348.314L94.092 348.314M162.641 430.626L169.482 430.626M100.95 430.626L107.791 430.626M142.066 410.039L148.924 410.039M80.3749 410.039L87.2335 410.039M169.482 389.47L176.34 389.47M107.791 389.47L114.65 389.47M128.367 382.608L135.225 382.608M66.6759 382.608L73.5344 382.608M66.6759 464.901L59.8174 464.901M128.367 464.901L121.508 464.901M135.225 451.195L142.066 451.195M73.5344 451.195L80.3749 451.195M155.783 458.057L162.641 458.057M94.092 458.057L100.95 458.057M176.34 224.864L183.199 224.864M114.65 224.864L121.508 224.864M148.924 211.158L155.783 211.158M87.2334 211.158L94.092 211.158M162.641 293.451L169.482 293.451M100.95 293.451L107.791 293.451M142.066 272.883L148.924 272.883M80.3749 272.883L87.2334 272.883M169.482 252.296L176.34 252.296M107.791 252.296L114.65 252.296M128.367 245.451L135.225 245.451M66.6759 245.451L73.5344 245.451M66.6759 327.745L59.8174 327.745M128.367 327.745L121.508 327.745M135.225 314.02L142.066 314.02M73.5344 314.02L80.3749 314.02M155.783 320.883L162.641 320.883M94.092 320.883L100.95 320.883" stroke="#899396" stroke-width="0.157061" stroke-linecap="round" stroke-linejoin="round"/>
<path d="M299.721 362.039L306.58 362.039M238.03 362.039L244.889 362.039M272.305 348.314L279.164 348.314M210.614 348.314L217.473 348.314M286.004 430.626L292.863 430.626M224.313 430.626L231.172 430.626M265.446 410.039L272.305 410.039M203.756 410.039L210.614 410.039M292.863 389.47L299.721 389.47M231.172 389.47L238.03 389.47M251.729 382.608L258.588 382.608M190.039 382.608L196.897 382.608M190.039 464.901L183.198 464.901M251.729 464.901L244.889 464.901M258.588 451.195L265.446 451.195M196.897 451.195L203.756 451.195M279.164 458.057L286.004 458.057M217.473 458.057L224.313 458.057M299.721 224.864L306.58 224.864M238.03 224.864L244.889 224.864M272.305 211.158L279.163 211.158M210.614 211.158L217.473 211.158M286.004 293.451L292.863 293.451M224.313 293.451L231.172 293.451M265.446 272.883L272.305 272.883M203.756 272.883L210.614 272.883M292.863 252.296L299.721 252.296M231.172 252.296L238.03 252.296M251.729 245.451L258.588 245.451M190.039 245.451L196.897 245.451M190.039 327.745L183.198 327.745M251.729 327.745L244.889 327.745M258.588 314.02L265.446 314.02M196.897 314.02L203.756 314.02M279.164 320.883L286.004 320.883M217.473 320.883L224.313 320.883" stroke="#899396" stroke-width="0.157061" stroke-linecap="round" stroke-linejoin="round"/>
<path d="M52.9586 87.7081L59.8171 87.7081M25.5425 73.9834L32.401 73.9834M39.2596 156.277L46.1001 156.277M18.684 135.708L25.5425 135.708M46.1001 115.139L52.9586 115.139M4.98498 108.277L11.8435 108.277M4.98498 190.571L-1.87354 190.571M11.8435 176.864L18.684 176.864M32.4011 183.726L39.2596 183.726" stroke="#899396" stroke-width="0.157061" stroke-linecap="round" stroke-linejoin="round"/>
<path d="M39.2603 19.1211L46.1008 19.1211" stroke="#899396" stroke-width="0.157061" stroke-linecap="round" stroke-linejoin="round"/>
<path d="M4.98498 53.4141L-1.87354 53.4141M11.8435 39.6873L18.684 39.6873M32.4011 46.5506L39.2596 46.5506" stroke="#899396" stroke-width="0.157061" stroke-linecap="round" stroke-linejoin="round"/>
<path d="M176.34 87.7081L183.199 87.7081M114.65 87.7081L121.508 87.7081M148.924 73.9834L155.783 73.9834M87.2334 73.9834L94.092 73.9834M162.641 156.277L169.482 156.277M100.95 156.277L107.791 156.277M142.066 135.708L148.924 135.708M80.3749 135.708L87.2335 135.708M169.482 115.139L176.34 115.139M107.791 115.139L114.65 115.139M128.367 108.277L135.225 108.277M66.6759 108.277L73.5344 108.277M66.6759 190.571L59.8174 190.571M128.367 190.571L121.508 190.571M135.225 176.864L142.066 176.864M73.5344 176.864L80.3749 176.864M155.783 183.726L162.641 183.726M94.092 183.726L100.95 183.726M162.641 19.1209L169.482 19.1209M100.95 19.1209L107.791 19.1209M66.6759 53.4145L59.8174 53.4145M128.367 53.4145L121.508 53.4145M135.225 39.6898L142.066 39.6898M73.5344 39.6898L80.3749 39.6898M155.783 46.5521L162.641 46.5521M94.092 46.5522L100.95 46.5522" stroke="#899396" stroke-width="0.157061" stroke-linecap="round" stroke-linejoin="round"/>
<path d="M299.721 87.7081L306.58 87.7081M238.03 87.7081L244.889 87.7081M272.305 73.9834L279.164 73.9834M210.614 73.9834L217.473 73.9834M286.004 156.277L292.863 156.277M224.313 156.277L231.172 156.277M265.446 135.708L272.305 135.708M203.756 135.708L210.614 135.708M292.863 115.139L299.721 115.139M231.172 115.139L238.03 115.139M251.729 108.277L258.588 108.277M190.039 108.277L196.897 108.277M190.039 190.571L183.198 190.571M251.729 190.571L244.889 190.571M258.588 176.864L265.446 176.864M196.897 176.864L203.756 176.864M279.164 183.726L286.004 183.726M217.473 183.726L224.313 183.726M286.004 19.1209L292.863 19.1209M224.313 19.1209L231.172 19.1209M190.039 53.4145L183.198 53.4145M251.729 53.4145L244.889 53.4145M258.588 39.6898L265.446 39.6898M196.897 39.6898L203.756 39.6898M279.164 46.5521L286.004 46.5521M217.473 46.5522L224.313 46.5522" stroke="#899396" stroke-width="0.157061" stroke-linecap="round" stroke-linejoin="round"/>
</g>
<path d="M296.553 452.437L179.202 452.437L179.203 477.959L165.935 477.959L165.935 483.074L114.902 483.074L114.902 477.959L104.695 477.959L104.695 318.667L13.3559 318.667L13.3559 37.3838L14.544 37.8161L88.5116 11.8617L162.479 37.798L236.609 11.8617L290.379 30.7016L290.271 66.7783L296.661 66.7783L296.553 452.437Z" stroke="#0B262E" stroke-width="0.167532" stroke-miterlimit="10" stroke-linecap="round" stroke-linejoin="round"/>
<path fill-rule="evenodd" clip-rule="evenodd" d="M269.569 240.57L168.924 240.57C166.026 240.57 163.667 238.193 163.667 235.311L163.667 76.2529C163.667 73.3531 166.044 70.9936 168.924 70.9936L269.569 70.9936C272.468 70.9936 274.826 73.3711 274.826 76.2529L274.826 235.311C274.826 238.211 272.45 240.57 269.569 240.57Z" fill="#F0F3F5" stroke="#263D43" stroke-width="0.335063" stroke-miterlimit="10" stroke-linecap="round" stroke-linejoin="round"/>
<path fill-rule="evenodd" clip-rule="evenodd" d="M13.356 318.739L13.356 288.101L68.9802 288.101L68.9802 318.739L13.356 318.739ZM13.356 203.862L13.3559 142.534L43.9763 142.534L43.9763 203.862L13.356 203.862Z" fill="#DCE1E3" stroke="#0B262E" stroke-width="0.335063" stroke-miterlimit="10" stroke-linecap="round" stroke-linejoin="round"/>
<path fill-rule="evenodd" clip-rule="evenodd" d="M90.9242 490.729L90.9242 465.189L0.611327 465.189L0.611308 32.8814L13.3743 37.3662L13.3743 318.667L99.6188 318.667L99.6188 288.03L104.713 288.03L104.713 386.066L99.6188 386.066L99.6188 349.304L13.3563 349.304L13.3563 448.601L99.6008 448.601L99.6008 426.897L104.695 426.897L104.695 477.959L114.902 477.959L114.902 490.729L90.9242 490.729ZM151.139 293.145L151.139 33.908L156.233 35.6011L156.233 293.145L160.067 293.145L160.067 298.242L151.139 298.242L151.139 293.145ZM309.317 452.437L309.407 68.886L309.407 37.3842L290.361 30.702L290.271 66.7787L296.644 66.7787L296.554 293.145L289.983 293.145L289.983 298.242L296.572 298.242L296.572 377.384L216.196 377.384L216.196 298.242L249.156 298.242L249.156 293.145L205.989 293.145L205.989 298.242L211.083 298.242L211.083 382.481L296.554 382.481L296.554 452.437L216.232 452.437L216.232 420.791L211.137 420.791L211.137 452.437L179.203 452.437L179.203 477.959L165.936 477.959L165.936 490.729L191.966 490.729L191.966 465.207L309.335 465.207L309.335 452.437L309.317 452.437ZM75.101 344.207L75.101 323.782L13.3563 323.782L13.3563 344.207L75.101 344.207ZM80.2133 323.782L80.2133 344.207L99.6008 344.207L99.6008 323.782L80.2133 323.782Z" fill="#B8BFC0" stroke="#0B262E" stroke-width="0.335063" stroke-miterlimit="22.926"/>
<path fill-rule="evenodd" clip-rule="evenodd" d="M160.139 296.747L160.139 293.162L162.679 293.162L162.679 296.747L160.139 296.747Z" fill="white" stroke="#0B262E" stroke-width="0.395794" stroke-miterlimit="10" stroke-linecap="round" stroke-linejoin="round"/>
<path d="M164.675 255.987C186.367 257.086 203.414 275.007 203.432 296.747" stroke="#0B262E" stroke-width="0.395794" stroke-miterlimit="10" stroke-linecap="round" stroke-linejoin="round"/>
<path fill-rule="evenodd" clip-rule="evenodd" d="M162.695 296.748L162.695 255.988L164.675 255.988L164.675 296.748L162.695 296.748ZM203.396 296.748L203.396 293.163L205.988 293.163L205.988 296.748L203.396 296.748ZM114.901 486.659L114.901 483.075L117.44 483.075L117.44 486.659L114.901 486.659Z" fill="white" stroke="#0B262E" stroke-width="0.395794" stroke-miterlimit="10" stroke-linecap="round" stroke-linejoin="round"/>
<path d="M119.672 440.784C144.1 442.027 163.271 462.182 163.289 486.659" stroke="#0B262E" stroke-width="0.395794" stroke-miterlimit="10" stroke-linecap="round" stroke-linejoin="round"/>
<path fill-rule="evenodd" clip-rule="evenodd" d="M117.458 486.659L117.458 440.784L119.69 440.784L119.69 486.659L117.458 486.659ZM163.235 486.659L163.235 483.075L165.827 483.075L165.827 486.659L163.235 486.659ZM287.444 296.694L287.444 293.109L289.983 293.109L289.983 296.694L287.444 296.694Z" fill="white" stroke="#0B262E" stroke-width="0.395794" stroke-miterlimit="10" stroke-linecap="round" stroke-linejoin="round"/>
<path d="M285.5 255.934C266.743 257.032 252 274.954 251.982 296.693" stroke="#0B262E" stroke-width="0.395794" stroke-miterlimit="10" stroke-linecap="round" stroke-linejoin="round"/>
<path fill-rule="evenodd" clip-rule="evenodd" d="M285.5 296.694L285.5 255.934L287.426 255.934L287.426 296.694L285.5 296.694ZM249.173 296.694L249.173 293.109L252.018 293.109L252.018 296.694L249.173 296.694ZM101.094 388.605L101.094 386.066L104.677 386.066L104.677 388.605L101.094 388.605Z" fill="white" stroke="#0B262E" stroke-width="0.395794" stroke-miterlimit="10" stroke-linecap="round" stroke-linejoin="round"/>
<path d="M141.831 390.533C140.733 409.301 122.822 424.052 101.094 424.07" stroke="#0B262E" stroke-width="0.395794" stroke-miterlimit="10" stroke-linecap="round" stroke-linejoin="round"/>
<path fill-rule="evenodd" clip-rule="evenodd" d="M101.094 390.532L101.094 388.605L141.831 388.605L141.831 390.532L101.094 390.532ZM101.094 426.807L101.094 424.069L104.677 424.069L104.677 426.807L101.094 426.807ZM211.137 420.791L211.137 382.499L216.231 382.499L216.231 420.791L211.137 420.791Z" fill="white" stroke="#0B262E" stroke-width="0.395794" stroke-miterlimit="10" stroke-linecap="round" stroke-linejoin="round"/>
<path d="M216.249 420.792L216.249 382.499" stroke="#0B262E" stroke-width="0.395794" stroke-miterlimit="10" stroke-linecap="round" stroke-linejoin="round"/>
<path fill-rule="evenodd" clip-rule="evenodd" d="M211.137 401.645L211.137 382.499L212.704 382.499L212.704 401.645L211.137 401.645ZM211.137 401.645L211.137 382.499L212.704 382.499L212.704 401.645L211.137 401.645ZM211.137 420.792L211.137 401.645L212.704 401.645L212.704 420.792L211.137 420.792ZM211.137 420.792L211.137 401.645L212.704 401.645L212.704 420.792L211.137 420.792Z" fill="white"/>
<path d="M211.137 401.645L211.137 382.499L212.704 382.499L212.704 401.645M211.137 401.645L212.704 401.645M211.137 401.645L211.137 420.792L212.704 420.792L212.704 401.645" stroke="#0B262E" stroke-width="0.395794" stroke-miterlimit="10" stroke-linecap="round" stroke-linejoin="round"/>
<path fill-rule="evenodd" clip-rule="evenodd" d="M13.356 344.207L13.356 323.782L75.1006 323.782L75.1006 344.207L13.356 344.207ZM80.213 344.207L80.213 323.782L99.6005 323.782L99.6005 344.207L80.213 344.207ZM50.2768 359.517L50.2768 349.304L99.6005 349.304L99.6005 359.517L50.2768 359.517Z" fill="#B8BFC0" stroke="#0B262E" stroke-width="0.335063" stroke-miterlimit="22.926"/>
<path fill-rule="evenodd" clip-rule="evenodd" d="M276.086 101.721L276.086 70.9754L296.517 70.9754L296.517 101.721L276.086 101.721ZM274.826 94.1019L274.826 78.5041L276.086 78.5041L276.086 94.1019L274.826 94.1019Z" fill="#DCE1E3" stroke="#0B262E" stroke-width="0.335063" stroke-miterlimit="10" stroke-linecap="round" stroke-linejoin="round"/>
<path d="M294.015 86.3552C294.015 82.1269 290.59 78.6992 286.364 78.6992C282.139 78.6992 278.714 82.1269 278.714 86.3552C278.714 90.5835 282.139 94.0112 286.364 94.0112C290.59 94.0112 294.015 90.5835 294.015 86.3552Z" fill="#DCE1E3" stroke="#0B262E" stroke-width="0.335063" stroke-miterlimit="10" stroke-linecap="round" stroke-linejoin="round"/>
<path d="M290.199 86.3558C290.199 84.2367 288.482 82.5188 286.365 82.5188C284.247 82.5188 282.53 84.2367 282.53 86.3558C282.53 88.475 284.247 90.1929 286.365 90.1929C288.482 90.1929 290.199 88.475 290.199 86.3558Z" fill="#DCE1E3" stroke="#0B262E" stroke-width="0.335063" stroke-miterlimit="10" stroke-linecap="round" stroke-linejoin="round"/>
<path d="M286.365 90.1929L286.365 82.5369M290.181 86.3558L282.53 86.3558" stroke="#0B262E" stroke-width="0.335063" stroke-miterlimit="10" stroke-linecap="round" stroke-linejoin="round"/>
<path fill-rule="evenodd" clip-rule="evenodd" d="M276.086 240.57L276.086 209.825L296.517 209.825L296.517 240.57L276.086 240.57ZM274.826 232.952L274.826 217.354L276.086 217.354L276.086 232.952L274.826 232.952Z" fill="#DCE1E3" stroke="#0B262E" stroke-width="0.335063" stroke-miterlimit="10" stroke-linecap="round" stroke-linejoin="round"/>
<path d="M294.015 225.205C294.015 220.977 290.59 217.549 286.364 217.549C282.139 217.549 278.714 220.977 278.714 225.205C278.714 229.434 282.139 232.861 286.364 232.861C290.59 232.861 294.015 229.434 294.015 225.205Z" fill="#DCE1E3" stroke="#0B262E" stroke-width="0.335063" stroke-miterlimit="10" stroke-linecap="round" stroke-linejoin="round"/>
<path d="M290.199 225.206C290.199 223.087 288.482 221.369 286.365 221.369C284.247 221.369 282.53 223.087 282.53 225.206C282.53 227.326 284.247 229.043 286.365 229.043C288.482 229.043 290.199 227.326 290.199 225.206Z" fill="#DCE1E3" stroke="#0B262E" stroke-width="0.335063" stroke-miterlimit="10" stroke-linecap="round" stroke-linejoin="round"/>
<path d="M286.365 229.043L286.365 221.369M290.181 225.206L282.53 225.206" stroke="#0B262E" stroke-width="0.335063" stroke-miterlimit="10" stroke-linecap="round" stroke-linejoin="round"/>
<path fill-rule="evenodd" clip-rule="evenodd" d="M266.761 167.822L266.545 179.367L266.761 190.804L266.797 191.417L267.481 202.35L273.889 202.854L280.28 203.052L286.796 202.854L293.205 202.35L293.727 187.022L293.727 171.712L293.205 156.385L284.636 155.88L276.05 155.88L267.481 156.385L266.797 167.318L266.761 167.822ZM189.355 109.843L189.355 201.737L189.463 202.656L189.877 203.574L190.489 204.385L191.209 204.997L192.253 205.412L193.189 205.52L248.669 205.52L248.669 106.061L193.189 106.061L192.253 106.151L191.209 106.565L190.489 107.178L189.877 107.898L189.463 108.817L189.355 109.843ZM248.669 206.636L248.669 206.834L266.761 206.834L266.761 191.417L266.797 191.417L266.761 190.804L266.545 179.367L266.761 167.822L266.797 167.318L266.761 167.318L266.761 144.137L266.797 144.137L266.761 143.633L266.545 132.195L266.761 120.668L266.797 120.146L266.761 120.146L266.761 104.728L248.669 104.728L248.669 206.33L248.669 206.636ZM266.761 120.668L266.545 132.195L266.761 143.633L266.797 144.137L267.481 155.16L276.05 155.682L284.636 155.682L293.205 155.16L293.727 139.85L293.727 124.541L293.205 109.231L286.796 108.601L280.28 108.403L273.889 108.601L267.481 109.231L266.797 120.146L266.761 120.668ZM266.761 203.971L266.761 204.295L293.925 204.295L293.925 107.286L266.761 107.286L266.761 120.146L266.797 120.146L267.481 109.231L273.889 108.601L280.28 108.403L286.796 108.601L293.205 109.231L293.727 124.541L293.727 139.85L293.205 155.16L284.636 155.682L276.05 155.682L267.481 155.16L266.797 144.137L266.761 144.137L266.761 167.318L266.797 167.318L267.481 156.385L276.05 155.88L284.636 155.88L293.205 156.385L293.727 171.712L293.727 187.022L293.205 202.35L286.796 202.854L280.28 203.052L273.889 202.854L267.481 202.35L266.797 191.417L266.761 191.417L266.761 202.962L266.761 203.971ZM293.925 204.277L293.925 107.268L296.517 107.268L296.517 204.277L293.925 204.277Z" fill="#DCE1E3"/>
<path d="M266.797 191.417L266.761 190.804L266.545 179.367L266.761 167.822L266.797 167.318M266.797 191.417L267.481 202.35L273.889 202.854L280.28 203.052L286.796 202.854L293.205 202.35L293.727 187.022L293.727 171.712L293.205 156.385L284.636 155.88L276.05 155.88L267.481 156.385L266.797 167.318M266.797 191.417L266.761 191.417M266.797 167.318L266.761 167.318L266.761 144.137L266.797 144.137M266.761 191.417L266.761 206.834L248.669 206.834L248.669 206.636L248.669 206.33L248.669 104.728L266.761 104.728L266.761 120.146M266.761 191.417L266.761 202.962L266.761 203.971L266.761 204.295L293.925 204.295L293.925 107.286L266.761 107.286L266.761 120.146M266.797 144.137L266.761 143.633L266.545 132.195L266.761 120.668L266.797 120.146M266.797 144.137L267.481 155.16L276.05 155.682L284.636 155.682L293.205 155.16L293.727 139.85L293.727 124.541L293.205 109.231L286.796 108.601L280.28 108.403L273.889 108.601L267.481 109.231L266.797 120.146M266.797 120.146L266.761 120.146M189.355 109.843L189.355 201.737L189.463 202.656L189.877 203.574L190.489 204.385L191.209 204.997L192.253 205.412L193.189 205.52L248.669 205.52L248.669 106.061L193.189 106.061L192.253 106.151L191.209 106.565L190.489 107.178L189.877 107.898L189.463 108.817L189.355 109.843ZM293.925 204.277L293.925 107.268L296.517 107.268L296.517 204.277L293.925 204.277Z" stroke="#0B262E" stroke-width="0.335063" stroke-miterlimit="10" stroke-linecap="round" stroke-linejoin="round"/>
<path fill-rule="evenodd" clip-rule="evenodd" d="M216.537 346.747L216.537 298.243L247.157 298.243L247.157 346.747L216.537 346.747Z" fill="#DCE1E3" stroke="#0B262E" stroke-width="0.335063" stroke-miterlimit="10" stroke-linecap="round" stroke-linejoin="round"/>
<path d="M231.838 298.243L231.838 346.747" stroke="#0B262E" stroke-width="0.335063" stroke-miterlimit="10" stroke-linecap="round" stroke-linejoin="round" stroke-dasharray="2.01 3.01"/>
<path fill-rule="evenodd" clip-rule="evenodd" d="M216.483 377.546L216.483 346.909L296.553 346.909L296.553 377.546L216.483 377.546Z" fill="#DCE1E3" stroke="#0B262E" stroke-width="0.335063" stroke-miterlimit="10" stroke-linecap="round" stroke-linejoin="round"/>
<path d="M216.483 362.237L296.553 362.237" stroke="#0B262E" stroke-width="0.335063" stroke-miterlimit="10" stroke-linecap="round" stroke-linejoin="round" stroke-dasharray="2.01 3.01"/>
<path fill-rule="evenodd" clip-rule="evenodd" d="M216.483 452.438L216.483 421.8L296.553 421.8L296.553 452.437L216.483 452.438Z" fill="#DCE1E3" stroke="#0B262E" stroke-width="0.335063" stroke-miterlimit="10" stroke-linecap="round" stroke-linejoin="round"/>
<path d="M216.483 437.128L296.553 437.128" stroke="#0B262E" stroke-width="0.335063" stroke-miterlimit="10" stroke-linecap="round" stroke-linejoin="round" stroke-dasharray="2.01 3.01"/>
<path fill-rule="evenodd" clip-rule="evenodd" d="M84.0469 359.571L65.6855 359.571L65.6855 377.006L65.7215 377.853L65.8296 378.717C66.5316 383.13 69.9339 386.534 74.0742 386.895L74.8662 386.931L75.6763 386.895C79.8166 386.498 83.1649 383.148 83.9209 378.717L84.0289 377.871L84.0649 377.006L84.0649 359.571L84.0469 359.571Z" fill="#DCE1E3" stroke="#0B262E" stroke-width="0.335063" stroke-miterlimit="10" stroke-linecap="round" stroke-linejoin="round"/>
<path d="M81.8329 363.263L67.8818 363.263L67.8818 377.168L67.9178 377.817L68.0078 378.483C68.5479 381.833 71.1221 384.409 74.2723 384.697L74.8664 384.733L75.4784 384.697C78.6287 384.409 81.1668 381.851 81.7429 378.483L81.8329 377.835L81.8689 377.186L81.8689 363.263L81.8329 363.263Z" stroke="#0B262E" stroke-width="0.335063" stroke-miterlimit="10" stroke-linecap="round" stroke-linejoin="round"/>
<path fill-rule="evenodd" clip-rule="evenodd" d="M13.356 234.5L13.356 203.863L43.9763 203.863L43.9763 234.5L13.356 234.5Z" fill="#DCE1E3" stroke="#0B262E" stroke-width="0.335063" stroke-miterlimit="10" stroke-linecap="round" stroke-linejoin="round"/>
<path d="M40.3041 219.171C40.3041 212.745 35.0977 207.536 28.6753 207.536C22.2528 207.536 17.0464 212.745 17.0464 219.171C17.0464 225.597 22.2528 230.807 28.6753 230.807C35.0977 230.807 40.3041 225.597 40.3041 219.171Z" fill="#DCE1E3" stroke="#0B262E" stroke-width="0.335063" stroke-miterlimit="10" stroke-linecap="round" stroke-linejoin="round"/>
<path d="M43.9763 203.863L13.356 234.5M13.428 203.863L43.9043 234.374" stroke="#0B262E" stroke-width="0.335063" stroke-miterlimit="10" stroke-linecap="round" stroke-linejoin="round"/>
<path fill-rule="evenodd" clip-rule="evenodd" d="M145.72 160.852L105.217 160.852L105.217 171.695L151.138 171.695L151.138 160.852L145.72 160.852ZM145.72 54.8913L145.72 160.87L151.138 160.87L151.138 54.8913L145.72 54.8913ZM105.217 44.0485L105.217 54.8913L151.138 54.8913L151.138 44.0485L105.217 44.0485ZM145.738 54.8913L145.738 107.881L142.156 107.881L142.156 54.8913L143.56 54.8913L145.738 54.8913ZM136.755 160.87L136.755 107.881L142.156 107.881L142.156 160.87L136.755 160.87ZM105.217 160.87L105.217 107.881L136.773 107.881L136.773 160.87L105.217 160.87ZM105.217 107.881L105.217 54.8913L136.773 54.8913L136.773 107.881L105.217 107.881ZM142.156 54.8913L142.156 107.881L136.755 107.881L136.755 54.8913L138.897 54.8913L142.156 54.8913ZM145.738 108.079L145.738 161.068L142.156 161.068L142.156 108.079L143.56 108.079L145.738 108.079Z" fill="#DCE1E3"/>
<path d="M151.138 54.8913L151.138 160.87L145.72 160.87L145.72 54.8913L151.138 54.8913ZM151.138 54.8913L105.217 54.8913M151.138 54.8913L151.138 44.0485L105.217 44.0485L105.217 54.8913M105.217 54.8913L105.217 107.881M105.217 54.8913L136.773 54.8913L136.773 107.881M142.156 107.881L145.738 107.881L145.738 54.8913L143.56 54.8913L142.156 54.8913M142.156 107.881L142.156 54.8913M142.156 107.881L136.755 107.881M142.156 107.881L142.156 160.87L136.755 160.87L136.755 107.881M142.156 54.8913L138.897 54.8913L136.755 54.8913L136.755 107.881M105.217 107.881L105.217 160.87L136.773 160.87L136.773 107.881M105.217 107.881L136.773 107.881M145.72 160.852L105.217 160.852L105.217 171.695L151.138 171.695L151.138 160.852L145.72 160.852ZM145.738 108.079L145.738 161.068L142.156 161.068L142.156 108.079L143.56 108.079L145.738 108.079Z" stroke="#0B262E" stroke-width="0.335063" stroke-miterlimit="10" stroke-linecap="round" stroke-linejoin="round"/>
<path fill-rule="evenodd" clip-rule="evenodd" d="M40.574 201.197L40.574 172.433L18.0003 172.433C17.4963 172.433 17.2803 172.649 17.2803 173.153L17.2803 200.476C17.2803 200.981 17.4963 201.197 18.0003 201.197L40.574 201.197Z" fill="#DCE1E3" stroke="#0B262E" stroke-width="0.335063" stroke-miterlimit="10" stroke-linecap="round" stroke-linejoin="round"/>
<path d="M31.123 180.106C31.2671 181.258 31.7531 181.727 32.9232 181.799M32.9052 177.962C31.7531 178.034 31.2491 178.503 31.105 179.655M33.1392 181.799C34.2913 181.727 34.7953 181.258 34.9393 180.106M34.9393 179.655C34.7953 178.503 34.3093 178.034 33.1392 177.962M20.4482 180.106C20.5923 181.925 21.3663 182.663 23.1844 182.735M23.1844 177.008C21.3663 177.08 20.5923 177.818 20.4482 179.637M26.1547 179.655C26.0107 177.836 25.2366 177.098 23.4005 177.026M31.123 193.524C31.2671 192.371 31.7531 191.903 32.9232 191.831M32.9052 195.685C31.7531 195.613 31.2491 195.145 31.105 193.992M33.1392 191.849C34.2913 191.921 34.7953 192.389 34.9393 193.542M34.9393 193.992C34.7953 195.145 34.3093 195.613 33.1392 195.685M20.4482 193.524C20.5923 191.705 21.3663 190.966 23.1844 190.894M23.1844 196.622C21.3663 196.55 20.5923 195.811 20.4482 193.992M23.4185 190.894C25.2366 190.966 26.0107 191.705 26.1727 193.542M26.1547 193.992C26.0107 195.811 25.2366 196.568 23.4005 196.622M40.5738 193.794L39.5837 193.794L39.5837 179.835L40.5738 179.835M37.7655 201.197L37.7655 172.451M23.4185 182.753C25.2366 182.681 26.0107 181.943 26.1727 180.124" stroke="#0B262E" stroke-width="0.335063" stroke-miterlimit="10" stroke-linecap="round" stroke-linejoin="round"/>
<path fill-rule="evenodd" clip-rule="evenodd" d="M13.356 288.03L13.356 257.176L43.9763 257.176L43.9763 288.03L13.356 288.03Z" fill="#DCE1E3" stroke="#0B262E" stroke-width="0.335063" stroke-miterlimit="10" stroke-linecap="round" stroke-linejoin="round"/>
<path d="M19.6563 271.946L19.6563 260.743C19.6563 260.184 19.8183 259.842 20.1603 259.68C20.3404 259.59 20.5564 259.554 20.8444 259.554L37.5497 259.554C37.9637 259.554 38.2517 259.626 38.4497 259.824C38.6477 260.022 38.7377 260.31 38.7377 260.761L38.7377 284.482C38.7377 284.914 38.6477 285.22 38.4497 285.4C38.2517 285.58 37.9637 285.67 37.5497 285.67L20.8444 285.67C20.5564 285.67 20.3404 285.634 20.1603 285.544C19.8183 285.382 19.6563 285.04 19.6563 284.482L19.6563 273.278M17.5861 271.892L17.5861 257.194L43.9761 257.194L43.9761 288.03L17.5861 288.03L17.5861 273.333M23.6346 271.892C23.8506 271.171 24.3547 270.595 24.9847 270.289C25.3267 270.127 25.7048 270.036 26.1008 270.036M26.1188 270.036C26.8388 270.036 27.4329 270.307 27.8829 270.739C28.765 271.585 29.017 273.026 28.1709 274.161L27.8829 274.485C27.0729 275.26 25.9208 275.368 25.0027 274.936C24.3727 274.647 23.8686 274.089 23.6526 273.333M26.7668 273.333L16.308 273.333C15.57 274.629 13.5898 274.089 13.5898 272.612C13.5898 271.117 15.552 270.595 16.308 271.892L26.7668 271.892" stroke="#0B262E" stroke-width="0.335063" stroke-miterlimit="10" stroke-linecap="round" stroke-linejoin="round"/>
<path fill-rule="evenodd" clip-rule="evenodd" d="M26.7671 273.333L26.7671 271.892L27.1814 271.892L27.1814 273.333L26.7671 273.333Z" fill="#DCE1E3" stroke="#0B262E" stroke-width="0.335063" stroke-miterlimit="10" stroke-linecap="round" stroke-linejoin="round"/>
<path fill-rule="evenodd" clip-rule="evenodd" d="M13.356 359.265L13.356 349.303L50.2768 349.303L50.2768 359.265L13.356 359.265Z" fill="#DCE1E3" stroke="#0B262E" stroke-width="0.335063" stroke-miterlimit="10" stroke-linecap="round" stroke-linejoin="round"/>
<path fill-rule="evenodd" clip-rule="evenodd" d="M112.904 234.354L139.726 234.354L139.726 237.633C139.726 238.408 139.096 239.038 138.322 239.038L114.308 239.038C113.534 239.038 112.904 238.408 112.904 237.633L112.904 234.354ZM114.02 243.434L138.592 243.434C139.204 243.434 139.708 242.929 139.708 242.317L139.708 240.786C139.708 240.173 139.204 239.669 138.592 239.669L114.02 239.669C113.408 239.669 112.904 240.173 112.904 240.786L112.904 242.317C112.904 242.929 113.408 243.434 114.02 243.434Z" fill="#DCE1E3" stroke="#0B262E" stroke-width="0.335063" stroke-miterlimit="10" stroke-linecap="round" stroke-linejoin="round"/>
<path d="M114.561 244.046C114.561 243.608 114.206 243.254 113.768 243.254C113.33 243.254 112.976 243.608 112.976 244.046C112.976 244.484 113.33 244.839 113.768 244.839C114.206 244.839 114.561 244.484 114.561 244.046Z" fill="#DCE1E3" stroke="#0B262E" stroke-width="0.335063" stroke-miterlimit="10" stroke-linecap="round" stroke-linejoin="round"/>
<path d="M139.763 244.046C139.763 243.608 139.408 243.254 138.97 243.254C138.532 243.254 138.177 243.608 138.177 244.046C138.177 244.484 138.532 244.839 138.97 244.839C139.408 244.839 139.763 244.484 139.763 244.046Z" fill="#DCE1E3" stroke="#0B262E" stroke-width="0.335063" stroke-miterlimit="10" stroke-linecap="round" stroke-linejoin="round"/>
<path fill-rule="evenodd" clip-rule="evenodd" d="M105.199 225.981L105.199 199.144L101.922 199.144C101.148 199.144 100.518 199.774 100.518 200.549L100.518 224.576C100.518 225.351 101.148 225.981 101.922 225.981L105.199 225.981ZM96.126 224.846L96.126 200.261C96.126 199.648 96.63 199.144 97.2421 199.144L98.7722 199.144C99.3842 199.144 99.8883 199.648 99.8883 200.261L99.8883 224.846C99.8883 225.459 99.3842 225.963 98.7722 225.963L97.2421 225.963C96.63 225.981 96.126 225.477 96.126 224.846Z" fill="#DCE1E3" stroke="#0B262E" stroke-width="0.335063" stroke-miterlimit="10" stroke-linecap="round" stroke-linejoin="round"/>
<path d="M96.3255 225.116C96.3255 224.678 95.9706 224.323 95.5329 224.323C95.0951 224.323 94.7402 224.678 94.7402 225.116C94.7402 225.554 95.0951 225.909 95.5329 225.909C95.9706 225.909 96.3255 225.554 96.3255 225.116Z" fill="#DCE1E3" stroke="#0B262E" stroke-width="0.335063" stroke-miterlimit="10" stroke-linecap="round" stroke-linejoin="round"/>
<path d="M96.3255 199.9C96.3255 199.462 95.9706 199.108 95.5329 199.108C95.0951 199.108 94.7402 199.462 94.7402 199.9C94.7402 200.338 95.0951 200.693 95.5329 200.693C95.9706 200.693 96.3255 200.338 96.3255 199.9Z" fill="#DCE1E3" stroke="#0B262E" stroke-width="0.335063" stroke-miterlimit="10" stroke-linecap="round" stroke-linejoin="round"/>
<path fill-rule="evenodd" clip-rule="evenodd" d="M105.145 234.356L105.145 188.409L151.066 188.409L151.066 234.356L105.145 234.356Z" fill="#DCE1E3" stroke="#0B262E" stroke-width="0.335063" stroke-miterlimit="10" stroke-linecap="round" stroke-linejoin="round"/>
<path fill-rule="evenodd" clip-rule="evenodd" d="M13.356 142.534L13.356 46.9295L31.9514 46.9295L31.9514 142.534L13.356 142.534Z" fill="#DCE1E3" stroke="#0B262E" stroke-width="0.335063" stroke-miterlimit="10" stroke-linecap="round" stroke-linejoin="round"/>
<path fill-rule="evenodd" clip-rule="evenodd" d="M19.4044 135.078L16.3802 135.078L13.356 118.381L13.356 84.9521L16.3802 68.85L16.3802 68.2376L19.4044 68.2376L19.4044 135.078Z" fill="#DCE1E3"/>
<path d="M16.3802 68.2376L19.4044 68.2376L19.4044 135.078L16.3802 135.078M16.3802 68.2376L13.356 84.9521L13.356 118.381L16.3802 135.078M16.3802 68.2376L16.3802 135.078M18.1983 72.7044L18.1983 77.1532L17.4423 77.1532L17.4423 72.7044L18.1983 72.7044ZM18.1983 78.2699L18.1983 82.7187L17.4423 82.7187L17.4423 78.2699L18.1983 78.2699ZM18.1983 83.8354L18.1983 86.0688L17.4423 86.0688L17.4423 83.8354L18.1983 83.8354Z" stroke="#0B262E" stroke-width="0.335063" stroke-miterlimit="10" stroke-linecap="round" stroke-linejoin="round"/>
<path d="M260.208 442.135L256.518 437.235L256.518 437.127L260.208 432.227C260.262 432.155 260.406 432.191 260.406 432.281L260.406 442.099C260.406 442.171 260.262 442.207 260.208 442.135ZM259.776 431.182L255.6 436.676L254.97 436.676C254.88 436.676 254.808 436.622 254.772 436.532C254.628 436.1 254.357 435.722 253.997 435.469C253.619 435.199 253.169 435.055 252.701 435.055C252.143 435.055 251.621 435.289 251.225 435.686C250.829 436.082 250.613 436.604 250.595 437.163C250.595 437.739 250.811 438.28 251.207 438.694C251.603 439.108 252.143 439.324 252.737 439.324C253.025 439.324 253.259 439.09 253.259 438.802C253.259 438.514 253.025 438.298 252.737 438.298C252.431 438.298 252.161 438.171 251.945 437.973C251.729 437.757 251.621 437.469 251.621 437.181C251.621 436.586 252.125 436.1 252.719 436.082C253.205 436.082 253.637 436.388 253.799 436.856C253.961 437.361 254.43 437.721 254.97 437.721L255.6 437.721L259.776 443.215C259.992 443.504 260.406 443.63 260.784 443.54C261.162 443.45 261.432 443.143 261.432 442.801L261.432 431.632C261.432 431.29 261.18 430.984 260.784 430.894C260.406 430.75 259.992 430.876 259.776 431.182Z" stroke="#DCE1E3" stroke-width="1.84285" stroke-linecap="round" stroke-linejoin="round"/>
<path fill-rule="evenodd" clip-rule="evenodd" d="M256.5 437.181L256.518 437.127L260.208 432.227C260.262 432.155 260.406 432.191 260.406 432.281L260.406 437.181L261.432 437.181L261.432 431.596C261.432 431.254 261.18 430.948 260.784 430.858C260.406 430.768 259.992 430.894 259.776 431.182L255.6 436.676L254.97 436.676C254.88 436.676 254.808 436.622 254.772 436.532C254.628 436.1 254.357 435.722 253.997 435.469C253.619 435.199 253.169 435.055 252.701 435.055C252.143 435.055 251.621 435.289 251.225 435.685C250.829 436.082 250.613 436.604 250.595 437.163L250.595 437.199L251.621 437.199L251.621 437.181C251.621 436.586 252.125 436.1 252.719 436.082C253.205 436.082 253.637 436.388 253.799 436.856L253.979 437.199L256.5 437.199L256.5 437.181ZM260.208 442.135L256.518 437.235L256.5 437.181L253.979 437.181C254.213 437.505 254.574 437.703 254.97 437.703L255.6 437.703L259.776 443.197C259.992 443.486 260.406 443.612 260.784 443.522C261.162 443.432 261.432 443.125 261.432 442.783L261.432 437.199L260.406 437.199L260.406 442.099C260.406 442.171 260.262 442.207 260.208 442.135ZM250.595 437.181L251.621 437.181C251.621 437.469 251.729 437.757 251.945 437.955C252.161 438.171 252.431 438.28 252.737 438.28C253.025 438.28 253.259 438.514 253.259 438.784C253.259 439.072 253.025 439.306 252.737 439.306C252.161 439.306 251.621 439.072 251.207 438.676C250.811 438.28 250.595 437.739 250.595 437.181Z" fill="#0B262E"/>
<path d="M260.208 367.082L256.518 362.182L256.518 362.074L260.208 357.174C260.262 357.102 260.406 357.138 260.406 357.228L260.406 367.046C260.406 367.118 260.262 367.154 260.208 367.082ZM259.776 356.129L255.6 361.624L254.97 361.624C254.88 361.624 254.808 361.57 254.772 361.479C254.628 361.047 254.357 360.669 253.997 360.417C253.619 360.146 253.169 360.002 252.701 360.002C252.143 360.002 251.621 360.236 251.225 360.633C250.829 361.029 250.613 361.552 250.595 362.11C250.595 362.686 250.811 363.227 251.207 363.641C251.603 364.055 252.143 364.272 252.737 364.272C253.025 364.272 253.259 364.037 253.259 363.749C253.259 363.461 253.025 363.245 252.737 363.245C252.431 363.245 252.161 363.119 251.945 362.921C251.729 362.704 251.621 362.416 251.621 362.128C251.621 361.534 252.125 361.047 252.719 361.029C253.205 361.029 253.637 361.335 253.799 361.804C253.961 362.308 254.43 362.668 254.97 362.668L255.6 362.668L259.776 368.163C259.992 368.451 260.406 368.577 260.784 368.487C261.162 368.397 261.432 368.091 261.432 367.748L261.432 356.58C261.432 356.237 261.18 355.931 260.784 355.841C260.406 355.697 259.992 355.841 259.776 356.129Z" stroke="#DCE1E3" stroke-width="1.84285" stroke-linecap="round" stroke-linejoin="round"/>
<path fill-rule="evenodd" clip-rule="evenodd" d="M256.5 362.128L256.518 362.074L260.208 357.174C260.262 357.102 260.406 357.138 260.406 357.228L260.406 362.128L261.432 362.128L261.432 356.544C261.432 356.201 261.18 355.895 260.784 355.805C260.406 355.715 259.992 355.841 259.776 356.129L255.6 361.624L254.97 361.624C254.88 361.624 254.808 361.569 254.772 361.479C254.628 361.047 254.357 360.669 253.997 360.417C253.619 360.146 253.169 360.002 252.701 360.002C252.143 360.002 251.621 360.236 251.225 360.633C250.829 361.029 250.613 361.551 250.595 362.11L250.595 362.146L251.621 362.146L251.621 362.128C251.621 361.533 252.125 361.047 252.719 361.029C253.205 361.029 253.637 361.335 253.799 361.804L253.979 362.146L256.5 362.146L256.5 362.128ZM260.208 367.082L256.518 362.182L256.5 362.128L253.979 362.128C254.213 362.452 254.574 362.65 254.97 362.65L255.6 362.65L259.776 368.145C259.992 368.433 260.406 368.559 260.784 368.469C261.162 368.379 261.432 368.073 261.432 367.73L261.432 362.146L260.406 362.146L260.406 367.046C260.406 367.118 260.262 367.154 260.208 367.082ZM250.595 362.128L251.621 362.128C251.621 362.416 251.729 362.704 251.945 362.903C252.161 363.119 252.431 363.227 252.737 363.227C253.025 363.227 253.259 363.461 253.259 363.731C253.259 364.019 253.025 364.254 252.737 364.254C252.161 364.254 251.621 364.019 251.207 363.623C250.811 363.227 250.595 362.686 250.595 362.128Z" fill="#0B262E"/>
<path fill-rule="evenodd" clip-rule="evenodd" d="M273.943 421.8L273.943 382.482L296.553 382.482L296.553 421.8L273.943 421.8Z" fill="#DCE1E3" stroke="#0B262E" stroke-width="0.335063" stroke-miterlimit="10" stroke-linecap="round" stroke-linejoin="round"/>
<path fill-rule="evenodd" clip-rule="evenodd" d="M68.98 318.739L68.98 288.101L99.6003 288.101L99.6003 318.739L68.98 318.739ZM68.98 291.289L68.98 288.408L99.6003 288.408L99.6003 291.289L68.98 291.289ZM70.2401 288.426L80.6809 288.426C80.6809 287.813 80.5009 287.399 80.1408 287.399L70.7801 287.399C70.4201 287.399 70.2401 287.813 70.2401 288.426Z" fill="#DCE1E3" stroke="#0B262E" stroke-width="0.335063" stroke-miterlimit="10" stroke-linecap="round" stroke-linejoin="round"/>
<path d="M90.8154 300.691L90.8154 305.284M89.1953 301.357L92.4536 304.618M89.1953 304.618L92.4536 301.357M88.4753 303.05L93.2996 303.05M84.425 300.691L84.425 305.284M82.7868 301.357L86.0451 304.618M82.7868 304.618L86.0451 301.357M82.0668 303.05L86.9091 303.05M77.8905 300.691L77.8905 305.284M76.2703 301.357L79.5286 304.618M76.2703 304.618L79.5286 301.357M75.5503 303.05L80.3747 303.05" stroke="#0B262E" stroke-width="0.191265" stroke-miterlimit="22.926" stroke-linecap="round" stroke-linejoin="round"/>
<path d="M44.3906 257.411L44.9671 257.411C45.0571 257.393 45.1292 257.321 45.1472 257.231L45.1472 234.626C45.1292 234.536 45.0571 234.464 44.9671 234.446L44.4807 234.446" stroke="#0B262E" stroke-width="0.335063" stroke-miterlimit="10" stroke-linecap="round" stroke-linejoin="round"/>
<path fill-rule="evenodd" clip-rule="evenodd" d="M13.356 257.411L13.356 234.428L43.9763 234.428L43.9763 257.411L13.356 257.411Z" fill="#DCE1E3" stroke="#0B262E" stroke-width="0.335063" stroke-miterlimit="10" stroke-linecap="round" stroke-linejoin="round"/>
<path d="M39.0796 240.371C37.7115 239.38 35.8754 239.308 34.4353 240.172C32.9952 241.055 32.2031 242.712 32.4371 244.388C32.5811 245.342 33.0312 246.189 33.6972 246.838M39.0796 238.731C37.2075 237.813 34.9753 238.011 33.3012 239.236C31.6091 240.461 30.763 242.532 31.069 244.604C31.249 245.829 31.8251 246.928 32.6531 247.756" stroke="#0B262E" stroke-width="0.256882" stroke-miterlimit="22.926" stroke-linejoin="bevel"/>
<path d="M32.4912 249.828L28.8369 249.81L28.8369 252.151L28.8369 247.45M39.1157 252.259L39.1157 247.36C38.8637 247.342 38.5757 247.306 38.2876 247.252C36.9735 247.089 35.2634 246.873 34.4893 247.179L34.3273 247.252L34.2733 247.288L34.1833 247.342L33.8053 247.63L33.4813 247.99L33.4453 248.044C33.2832 248.278 33.1752 248.531 33.0852 248.801C32.9952 249.089 32.9412 249.377 32.9412 249.683L32.9412 249.9C32.9592 250.206 32.9952 250.494 33.0852 250.782C33.1752 251.053 33.2832 251.305 33.4273 251.521L33.4453 251.539L33.4813 251.593L33.8053 251.953L34.1833 252.241L34.2733 252.296L34.2733 252.314L34.3273 252.35L34.4893 252.422C35.2814 252.728 36.9915 252.512 38.3056 252.35L39.1157 252.259Z" stroke="#0B262E" stroke-width="0.335063" stroke-miterlimit="22.926" stroke-linecap="round" stroke-linejoin="round"/>
<path fill-rule="evenodd" clip-rule="evenodd" d="M25.3444 242.371L22.1582 240.768L25.3444 239.164C26.1005 238.786 27.0186 238.984 27.5406 239.633C28.0626 240.299 28.0626 241.236 27.5406 241.884C27.0186 242.551 26.1005 242.749 25.3444 242.371Z" fill="#DCE1E3" stroke="#0B262E" stroke-width="0.335063" stroke-miterlimit="10" stroke-linecap="round" stroke-linejoin="round"/>
<path d="M34.2376 247.288C33.1215 246.531 32.3834 245.235 32.3834 243.794C32.3834 241.452 34.2736 239.561 36.6138 239.561C37.5498 239.561 38.4139 239.867 39.1159 240.371M33.2655 248.224C31.9334 247.216 31.0693 245.613 31.0693 243.794C31.0693 240.714 33.5535 238.228 36.6318 238.228C37.5318 238.228 38.3779 238.444 39.1159 238.822M39.1159 236.661L39.1159 255.177" stroke="#0B262E" stroke-width="0.335063" stroke-miterlimit="22.926" stroke-linecap="round" stroke-linejoin="round"/>
<path fill-rule="evenodd" clip-rule="evenodd" d="M55.5508 448.601L55.5508 424.808L96.3779 424.808L96.3779 448.601L55.5508 448.601Z" fill="#DCE1E3" stroke="#0B262E" stroke-width="0.335063" stroke-miterlimit="10" stroke-linecap="round" stroke-linejoin="round"/>
<path fill-rule="evenodd" clip-rule="evenodd" d="M84.8393 445.647L81.671 445.647L81.707 445.376L81.671 445.088L84.8393 445.088L84.8393 445.647ZM84.8393 445.647L81.671 445.647L81.707 445.376L81.671 445.088L84.8393 445.088L84.8393 445.647ZM81.653 445.07L81.689 445.358L81.653 445.629L81.203 445.629L81.257 445.358L81.239 445.214L81.203 445.07L81.653 445.07ZM81.653 445.07L81.689 445.358L81.653 445.629L81.203 445.629L81.257 445.358L81.239 445.214L81.203 445.07L81.653 445.07ZM81.239 445.214L81.257 445.358L81.203 445.647L80.5189 445.647L80.5189 445.07L81.203 445.07L81.239 445.214ZM71.4102 445.07L71.4102 445.647L70.7262 445.647L70.6722 445.376L70.6902 445.232L70.7442 445.088L71.4102 445.088L71.4102 445.07ZM71.4102 445.07L71.4102 445.647L70.7262 445.647L70.6722 445.376L70.6902 445.232L70.7442 445.088L71.4102 445.088L71.4102 445.07ZM70.2762 445.07L70.7442 445.07L70.6902 445.214L70.6722 445.358L70.7262 445.629L70.2762 445.629L70.2402 445.358L70.2762 445.07ZM69.6641 445.07L70.2762 445.07L70.2402 445.358L70.2762 445.629L67.1079 445.629L67.1079 445.052L69.6641 445.052L69.6641 445.07ZM69.6641 445.07L70.2762 445.07L70.2402 445.358L70.2762 445.629L67.1079 445.629L67.1079 445.052L69.6641 445.052L69.6641 445.07ZM81.653 445.07C81.527 444.548 81.077 444.169 80.5009 444.169C79.8529 444.169 79.3128 444.692 79.3128 445.358C79.3128 446.007 79.8349 446.529 80.5009 446.529C81.059 446.529 81.527 446.151 81.653 445.629L81.653 445.07Z" fill="#DCE1E3"/>
<path d="M81.653 445.07L81.689 445.358L81.653 445.629M81.653 445.07L81.203 445.07M81.653 445.07C81.527 444.548 81.077 444.169 80.5009 444.169C79.8529 444.169 79.3128 444.692 79.3128 445.358C79.3128 446.007 79.8349 446.529 80.5009 446.529C81.059 446.529 81.527 446.151 81.653 445.629M81.653 445.07L81.653 445.629M81.653 445.629L81.203 445.629L81.257 445.358M81.257 445.358L81.239 445.214L81.203 445.07M81.257 445.358L81.203 445.647L80.5189 445.647L80.5189 445.07L81.203 445.07M70.2762 445.07L70.7442 445.07L70.6902 445.214L70.6722 445.358L70.7262 445.629L70.2762 445.629M70.2762 445.07L70.2402 445.358L70.2762 445.629M70.2762 445.07L69.6641 445.07L69.6641 445.052L67.1079 445.052L67.1079 445.629L70.2762 445.629M84.8393 445.647L81.671 445.647L81.707 445.376L81.671 445.088L84.8393 445.088L84.8393 445.647ZM71.4102 445.07L71.4102 445.647L70.7262 445.647L70.6722 445.376L70.6902 445.232L70.7442 445.088L71.4102 445.088L71.4102 445.07Z" stroke="#0B262E" stroke-width="0.167532" stroke-miterlimit="10" stroke-linecap="round" stroke-linejoin="round"/>
<path fill-rule="evenodd" clip-rule="evenodd" d="M76.5961 440.459C77.2986 440.153 77.695 439.397 77.5328 438.64C77.3707 437.883 76.7042 437.343 75.9296 437.325C75.173 437.325 74.5065 437.883 74.3443 438.622C74.2002 439.379 74.5785 440.135 75.2811 440.441L76.5961 440.441L76.5961 440.459Z" fill="#DCE1E3" stroke="#0B262E" stroke-width="0.335063" stroke-miterlimit="10" stroke-linecap="round" stroke-linejoin="round"/>
<path fill-rule="evenodd" clip-rule="evenodd" d="M76.4343 444.782C76.9747 445.232 76.6505 446.097 75.9479 446.097C75.2454 446.097 74.9391 445.232 75.4796 444.782L76.4343 444.782ZM76.4343 444.278C76.9387 444.512 77.2269 445.052 77.1189 445.611C77.0108 446.151 76.5244 446.547 75.9479 446.547C75.3895 446.547 74.9031 446.169 74.795 445.611C74.6869 445.07 74.9572 444.512 75.4796 444.278L76.4343 444.278ZM76.4343 444.782L76.4343 445.881L75.4796 445.881L75.4796 438.441L76.4343 438.441L76.4343 444.278L76.4343 444.782Z" fill="#DCE1E3"/>
<path d="M76.4343 444.782C76.9747 445.232 76.6505 446.097 75.9479 446.097C75.2454 446.097 74.9391 445.232 75.4796 444.782L76.4343 444.782ZM76.4343 444.782L76.4343 445.881L75.4796 445.881L75.4796 438.441L76.4343 438.441L76.4343 444.278M76.4343 444.782L76.4343 444.278M76.4343 444.278C76.9387 444.512 77.2269 445.052 77.1189 445.611C77.0108 446.151 76.5244 446.547 75.9479 446.547C75.3895 446.547 74.9031 446.169 74.795 445.611C74.6869 445.07 74.9572 444.512 75.4796 444.278L76.4343 444.278Z" stroke="#0B262E" stroke-width="0.167532" stroke-miterlimit="10" stroke-linecap="round" stroke-linejoin="round"/>
<path d="M75.4789 442.801L66.7483 442.801C66.1182 442.801 65.8662 442.531 65.8662 441.919L65.8662 428.246C65.8662 427.615 66.1362 427.363 66.7483 427.363L85.1457 427.363C85.7757 427.363 86.0277 427.633 86.0277 428.246L86.0277 441.919C86.0277 442.549 85.7757 442.801 85.1457 442.801L76.415 442.801" stroke="#0B262E" stroke-width="0.335063" stroke-miterlimit="10" stroke-linecap="round" stroke-linejoin="round"/>
<path fill-rule="evenodd" clip-rule="evenodd" d="M81.6529 445.647L84.8392 445.647L84.8392 445.07L80.5189 445.07L80.5189 445.647L81.2029 445.647L81.6529 445.647ZM81.6529 445.647L84.8392 445.647L84.8392 445.07L80.5189 445.07L80.5189 445.647L81.2029 445.647L81.6529 445.647ZM70.2761 445.07C70.4021 444.548 70.8521 444.169 71.4282 444.169C72.0762 444.169 72.6163 444.692 72.6163 445.358C72.6163 446.007 72.0942 446.529 71.4282 446.529C70.8701 446.529 70.4021 446.151 70.2761 445.629L70.2761 445.07ZM70.2761 445.647L67.0898 445.647L67.0898 445.07L71.4102 445.07L71.4102 445.647L70.7261 445.647L70.2761 445.647ZM70.2761 445.647L67.0898 445.647L67.0898 445.07L71.4102 445.07L71.4102 445.647L70.7261 445.647L70.2761 445.647ZM76.4325 444.782L76.4325 445.881L75.4785 445.881L75.4785 438.441L76.4325 438.441L76.4325 444.278L76.4325 444.782Z" fill="#DCE1E3" stroke="#0B262E" stroke-width="0.167532" stroke-miterlimit="10" stroke-linecap="round" stroke-linejoin="round"/>
<path fill-rule="evenodd" clip-rule="evenodd" d="M13.356 448.709L13.356 359.283L50.2767 359.283L50.2768 448.709L13.356 448.709Z" fill="#DCE1E3" stroke="#0B262E" stroke-width="0.335063" stroke-miterlimit="10" stroke-linecap="round" stroke-linejoin="round"/>
<path d="M32.3295 440.352L45.7046 440.352C46.7126 440.352 47.1267 439.829 47.1267 438.568L47.1267 365.028C47.1267 363.767 46.7126 363.245 45.7046 363.245L17.9285 363.245C16.9204 363.245 16.5063 363.767 16.5063 365.028L16.5063 438.568C16.5063 439.829 16.9204 440.352 17.9285 440.352L31.3035 440.352M32.2755 438.965L44.4085 438.965C45.3265 438.965 45.7046 438.46 45.7046 437.254L45.7046 366.829C45.7046 365.623 45.3265 365.118 44.4085 365.118L19.2065 365.118C18.2885 365.118 17.9105 365.623 17.9105 366.829L17.9105 437.254C17.9105 438.46 18.2885 438.965 19.2066 438.965L31.3395 438.965" stroke="#0B262E" stroke-width="0.335063" stroke-miterlimit="10" stroke-linecap="round" stroke-linejoin="round"/>
<path d="M35.0476 433.687C35.0476 431.767 33.4922 430.21 31.5734 430.21C29.6546 430.21 28.0991 431.767 28.0991 433.687C28.0991 435.607 29.6546 437.164 31.5734 437.164C33.4922 437.164 35.0476 435.607 35.0476 433.687Z" stroke="#0B262E" stroke-width="0.335063" stroke-miterlimit="22.926"/>
<path fill-rule="evenodd" clip-rule="evenodd" d="M30.8355 433.685L30.8355 433.252L32.3307 433.252L32.3307 433.685L30.8355 433.685ZM30.8355 433.685L32.3307 433.685L32.3307 444.493C33.6637 445.25 33.1233 447.303 31.5921 447.303C30.0609 447.303 29.5205 445.268 30.8355 444.493L30.8355 433.685Z" fill="#DCE1E3"/>
<path d="M30.8355 433.685L30.8355 433.252L32.3307 433.252L32.3307 433.685M30.8355 433.685L32.3307 433.685M30.8355 433.685L30.8355 444.493C29.5205 445.268 30.0609 447.303 31.5921 447.303C33.1233 447.303 33.6637 445.25 32.3307 444.493L32.3307 433.685" stroke="#0B262E" stroke-width="0.335063" stroke-miterlimit="10" stroke-linecap="round" stroke-linejoin="round"/>
<path fill-rule="evenodd" clip-rule="evenodd" d="M37.4596 446.709C37.6216 446.655 37.8196 446.637 37.9996 446.637C38.1796 446.637 38.3596 446.655 38.5217 446.709L38.5217 447.574C38.3596 447.502 38.1796 447.466 37.9996 447.466L37.7476 447.502L37.4596 447.574L37.4596 446.709ZM37.4596 446.709C37.6216 446.655 37.8196 446.637 37.9996 446.637C38.1796 446.637 38.3596 446.655 38.5217 446.709L38.5217 447.574C38.3596 447.502 38.1796 447.466 37.9996 447.466L37.7476 447.502L37.4596 447.574L37.4596 446.709ZM37.7476 447.502L37.9996 447.466C38.1796 447.466 38.3596 447.502 38.5217 447.574L38.5217 448.708L37.4416 448.708L37.4416 447.574L37.7476 447.502ZM37.4596 446.709C36.5235 446.925 35.8395 447.718 35.7855 448.708L40.2138 448.708C40.1418 447.718 39.4397 446.925 38.5217 446.709L37.4596 446.709ZM38.5217 443.16L38.5217 447.466L37.9996 447.411L37.4596 447.466L37.4596 443.16L38.5217 443.16ZM25.1106 446.709C25.2727 446.655 25.4707 446.637 25.6507 446.637C25.8307 446.637 26.0107 446.655 26.1727 446.709L26.1727 447.574C26.0107 447.502 25.8307 447.466 25.6507 447.466L25.3987 447.502L25.1106 447.574L25.1106 446.709ZM25.1106 446.709C25.2727 446.655 25.4707 446.637 25.6507 446.637C25.8307 446.637 26.0107 446.655 26.1727 446.709L26.1727 447.574C26.0107 447.502 25.8307 447.466 25.6507 447.466L25.3987 447.502L25.1106 447.574L25.1106 446.709ZM25.3987 447.502L25.6507 447.466C25.8307 447.466 26.0107 447.502 26.1727 447.574L26.1727 448.708L25.0926 448.708L25.0926 447.574L25.3987 447.502ZM25.1106 446.709C24.1746 446.925 23.4905 447.718 23.4365 448.708L27.8649 448.708C27.7929 447.718 27.0908 446.925 26.1727 446.709L25.1106 446.709ZM26.1907 443.16L26.1907 447.466L25.6687 447.411L25.1287 447.466L25.1287 443.16L26.1907 443.16Z" fill="#DCE1E3"/>
<path d="M37.4596 446.709C37.6216 446.655 37.8196 446.637 37.9996 446.637C38.1796 446.637 38.3597 446.655 38.5217 446.709M37.4596 446.709L37.4596 447.574L37.7476 447.502M37.4596 446.709C36.5235 446.925 35.8395 447.718 35.7855 448.708L40.2138 448.708C40.1418 447.718 39.4397 446.925 38.5217 446.709M37.4596 446.709L38.5217 446.709M38.5217 446.709L38.5217 447.574M38.5217 447.574C38.3597 447.502 38.1796 447.466 37.9996 447.466L37.7476 447.502M38.5217 447.574L38.5217 448.708L37.4416 448.708L37.4416 447.574L37.7476 447.502M25.1106 446.709C25.2727 446.655 25.4707 446.637 25.6507 446.637C25.8307 446.637 26.0107 446.655 26.1727 446.709M25.1106 446.709L25.1106 447.574L25.3987 447.502M25.1106 446.709C24.1746 446.925 23.4905 447.718 23.4365 448.708L27.8649 448.708C27.7929 447.718 27.0908 446.925 26.1727 446.709M25.1106 446.709L26.1727 446.709M26.1727 446.709L26.1727 447.574M26.1727 447.574C26.0107 447.502 25.8307 447.466 25.6507 447.466L25.3987 447.502M26.1727 447.574L26.1727 448.708L25.0926 448.708L25.0926 447.574L25.3987 447.502M38.5217 443.16L38.5217 447.466L37.9996 447.411L37.4596 447.466L37.4596 443.16L38.5217 443.16ZM26.1907 443.16L26.1907 447.466L25.6687 447.411L25.1287 447.466L25.1287 443.16L26.1907 443.16Z" stroke="#0B262E" stroke-width="0.335063" stroke-miterlimit="10" stroke-linecap="round" stroke-linejoin="round"/>
<path d="M0.593261 22.3451L14.6343 27.2803M14.6343 27.2803L88.6199 1.2719L162.606 27.2803L236.591 1.2719L309.407 26.866M14.6343 27.2803L14.6343 37.7989M236.609 1.2719L236.609 11.8805M162.624 27.2622L162.642 37.7989M88.6379 1.2719L88.6379 11.9526M0.593262 32.8818L14.6343 37.8169L88.6199 11.8806L162.624 37.8169L236.591 11.8805L309.407 37.4026M0.593261 24.2543L14.6343 29.1895L88.6199 3.19907L162.606 29.1895L236.591 3.19907L309.407 28.7932M0.593261 25.281L14.6343 30.2161L88.6199 4.22573L162.606 30.2341L236.591 4.22573L309.407 29.8198M0.593261 27.3163L14.6343 32.2514L88.6199 6.24299L162.606 32.2334L236.591 6.22501L309.407 31.8191" stroke="#0B262E" stroke-width="0.335063" stroke-miterlimit="22.926" stroke-linecap="round" stroke-linejoin="round"/>
<path fill-rule="evenodd" clip-rule="evenodd" d="M0.593261 22.3451L14.6343 27.2802L14.6343 37.7988L0.593262 32.8817L0.593261 22.3451ZM88.6199 1.27187L162.606 27.2622L162.606 37.7988L88.6199 11.8625L88.6199 1.27187ZM236.609 1.27186L309.425 26.8659L309.425 37.4026L236.609 11.8805L236.609 1.27186Z" fill="#B8BFC0" stroke="#0B262E" stroke-width="0.335063" stroke-miterlimit="22.926" stroke-linejoin="round"/>
<path fill-rule="evenodd" clip-rule="evenodd" d="M276.212 332.049L276.212 325.151L275.186 325.151L275.186 330.122L272.414 327.276C271.172 326.015 269.929 325.205 268.669 325.205C266.905 325.205 265.771 326.412 265.771 328.321C265.771 330.284 267.049 331.509 269.065 331.671L269.065 330.5C267.445 330.302 266.779 329.528 266.779 328.321C266.779 327.15 267.463 326.484 268.615 326.484C269.659 326.484 270.596 327.024 271.604 327.961L275.906 332.049L276.212 332.049ZM277.994 323.188L274.988 321.405L274.43 322.575L277.58 323.962L277.994 323.188ZM276.356 316.56C276.356 314.38 274.97 312.993 272.918 312.993C271.028 312.993 269.551 314.326 269.551 316.361C269.551 317.55 270.109 318.523 270.956 319.009C268.237 318.955 266.833 317.856 266.833 316.307C266.833 315.155 267.355 314.632 268.309 314.398L268.309 313.209C266.653 313.48 265.825 314.614 265.825 316.217C265.825 318.577 267.751 320.252 271.46 320.252L271.712 320.252C274.25 320.27 276.356 319.369 276.356 316.56ZM275.366 316.56C275.366 317.946 274.466 318.937 272.792 318.937C271.46 318.937 270.524 317.964 270.524 316.578C270.524 315.173 271.496 314.29 272.972 314.29C274.412 314.29 275.366 315.209 275.366 316.56ZM78.395 413.551C78.395 411.425 77.2789 409.894 75.4068 409.894C73.9847 409.894 73.1386 410.669 72.8146 411.876C72.4185 410.939 71.7345 410.254 70.5644 410.254C69.1423 410.254 67.8462 411.389 67.8462 413.352C67.8462 415.316 69.1783 416.649 70.8164 416.721L70.8164 415.622C69.6463 415.496 68.8723 414.631 68.8723 413.352C68.8723 412.092 69.6283 411.479 70.6004 411.479C71.7165 411.479 72.3645 412.074 72.3645 413.406L72.3645 414.127L73.4086 414.127L73.4086 413.352C73.4086 411.894 74.0927 411.173 75.4068 411.173C76.6129 411.173 77.3869 411.912 77.3869 413.515C77.3869 415.136 76.4508 415.874 75.2268 416L75.2268 417.153C77.0269 417.081 78.395 415.73 78.395 413.551ZM80.0331 408.021L77.0269 406.238L76.4688 407.409L79.6191 408.796L80.0331 408.021ZM78.395 401.429C78.395 399.304 77.2789 397.773 75.4068 397.773C73.9847 397.773 73.1386 398.547 72.8146 399.754C72.4185 398.817 71.7345 398.133 70.5644 398.133C69.1423 398.133 67.8462 399.268 67.8462 401.231C67.8462 403.194 69.1783 404.527 70.8164 404.599L70.8164 403.5C69.6463 403.374 68.8723 402.51 68.8723 401.231C68.8723 399.97 69.6283 399.358 70.6004 399.358C71.7165 399.358 72.3645 399.952 72.3645 401.285L72.3645 402.005L73.4086 402.005L73.4086 401.231C73.4086 399.772 74.0927 399.051 75.4068 399.051C76.6129 399.051 77.3869 399.79 77.3869 401.393C77.3869 403.014 76.4508 403.752 75.2268 403.878L75.2268 405.031C77.0269 404.959 78.395 403.626 78.395 401.429ZM168.33 389.866C168.33 387.686 166.944 386.299 164.892 386.299C163.001 386.299 161.525 387.632 161.525 389.668C161.525 390.856 162.083 391.829 162.929 392.315C160.211 392.261 158.807 391.162 158.807 389.613C158.807 388.461 159.329 387.938 160.283 387.704L160.283 386.516C158.627 386.786 157.799 387.92 157.799 389.523C157.799 391.883 159.725 393.558 163.433 393.558L163.685 393.558C166.224 393.576 168.33 392.675 168.33 389.866ZM167.34 389.866C167.34 391.253 166.44 392.243 164.766 392.243C163.433 392.243 162.497 391.271 162.497 389.884C162.497 388.479 163.469 387.596 164.946 387.596C166.386 387.596 167.34 388.515 167.34 389.866ZM169.968 384.57L166.962 382.805L166.404 383.976L169.554 385.363L169.968 384.57ZM163.577 377.87C163.577 379.275 162.605 380.158 161.129 380.158C159.671 380.158 158.717 379.239 158.717 377.888C158.717 376.501 159.653 375.511 161.345 375.511C162.695 375.511 163.577 376.501 163.577 377.87ZM168.312 378.068C168.312 375.601 166.422 374.196 163.019 374.196L162.353 374.196C159.383 374.196 157.745 375.457 157.745 377.906C157.745 380.086 159.131 381.472 161.183 381.472C163.127 381.472 164.55 380.086 164.55 378.086C164.55 376.897 164.009 375.907 163.181 375.421C165.918 375.457 167.268 376.411 167.268 378.05C167.268 379.383 166.656 379.959 165.648 380.176L165.648 381.382C167.322 381.112 168.312 379.959 168.312 378.068ZM79.9431 172.937L79.9431 171.694L69.6463 171.694L69.6463 172.847L71.3745 175.243L72.5265 175.243L70.8704 172.937L79.9431 172.937ZM79.9431 164.544L79.9431 163.319L77.7829 163.319L77.7829 161.896L76.7569 161.896L76.7569 163.319L69.6463 163.319L69.6463 164.994L77.3869 169.713L77.7829 169.713L77.7829 164.562L79.9431 164.562L79.9431 164.544ZM76.7569 168.11L70.6004 164.544L76.7569 164.544L76.7569 168.11ZM81.7072 160.221L78.701 158.438L78.143 159.609L81.3112 160.996L81.7072 160.221ZM80.0691 153.431C80.0691 151.684 79.043 149.883 76.9909 149.883C75.6588 149.883 74.7767 150.657 74.3447 151.864C73.9306 150.909 73.2106 150.279 72.1665 150.279C70.5464 150.279 69.5203 151.828 69.5203 153.431C69.5203 155.016 70.5284 156.601 72.2025 156.601C73.2106 156.601 73.9846 156.025 74.3627 155.052C74.7587 156.151 75.6408 156.997 77.0269 156.997C79.061 156.997 80.0691 155.124 80.0691 153.431ZM73.8946 153.395C73.8946 154.44 73.2826 155.34 72.2025 155.34C71.1404 155.34 70.4924 154.512 70.4924 153.431C70.4924 152.368 71.1764 151.54 72.1845 151.54C73.2646 151.54 73.8946 152.296 73.8946 153.395ZM79.043 153.431C79.043 154.62 78.323 155.7 76.9729 155.7C75.6048 155.7 74.9027 154.62 74.9027 153.395C74.9027 152.17 75.5868 151.161 76.9549 151.161C78.305 151.161 79.043 152.17 79.043 153.431ZM251.586 408.291L251.586 401.393L250.56 401.393L250.56 406.364L247.788 403.518C246.546 402.257 245.304 401.447 244.044 401.447C242.279 401.447 241.145 402.654 241.145 404.563C241.145 406.526 242.423 407.751 244.44 407.913L244.44 406.742C242.819 406.544 242.153 405.77 242.153 404.563C242.153 403.392 242.837 402.726 243.99 402.726C245.034 402.726 245.97 403.266 246.978 404.203L251.28 408.291L251.586 408.291ZM253.35 399.43L250.344 397.665L249.786 398.835L252.954 400.204L253.35 399.43ZM251.586 394.819L251.586 393.576L241.289 393.576L241.289 394.729L243.017 397.124L244.17 397.124L242.513 394.819L251.586 394.819ZM226.78 168.11L226.78 166.849L216.483 166.849L216.483 168.02L218.212 170.416L219.382 170.416L217.726 168.11L226.78 168.11ZM226.924 160.96C226.924 158.834 225.808 157.303 223.936 157.303C222.514 157.303 221.668 158.078 221.344 159.285C220.948 158.348 220.264 157.664 219.094 157.664C217.672 157.664 216.375 158.798 216.375 160.761C216.375 162.725 217.708 164.058 219.346 164.13L219.346 163.031C218.176 162.905 217.401 162.04 217.401 160.761C217.401 159.501 218.158 158.888 219.13 158.888C220.246 158.888 220.894 159.483 220.894 160.816L220.894 161.536L221.938 161.536L221.938 160.761C221.938 159.303 222.622 158.582 223.936 158.582C225.142 158.582 225.916 159.321 225.916 160.924C225.916 162.545 224.98 163.283 223.756 163.409L223.756 164.562C225.556 164.49 226.924 163.139 226.924 160.96ZM228.562 155.43L225.556 153.647L224.998 154.818L228.148 156.205L228.562 155.43ZM222.172 148.73C222.172 150.135 221.2 151.017 219.724 151.017C218.266 151.017 217.311 150.099 217.311 148.748C217.311 147.361 218.248 146.37 219.94 146.37C221.29 146.352 222.172 147.343 222.172 148.73ZM226.906 148.91C226.906 146.442 225.016 145.038 221.614 145.038L220.966 145.038C217.996 145.038 216.357 146.298 216.357 148.748C216.357 150.927 217.744 152.314 219.796 152.314C221.74 152.314 223.162 150.927 223.162 148.928C223.162 147.739 222.622 146.749 221.794 146.262C224.53 146.298 225.88 147.253 225.88 148.892C225.88 150.225 225.268 150.801 224.26 151.017L224.26 152.224C225.916 151.954 226.906 150.819 226.906 148.91Z" fill="#0B262E"/>
</g>
<defs>
<clipPath id="clip0_149_21091">
<rect width="490.323" height="309.677" fill="white" transform="translate(0.161133 491.161) rotate(-90)"/>
</clipPath>
</defs>
</svg>
